<svg width="13" height="15" viewBox="0 0 13 15" fill="none" xmlns="http://www.w3.org/2000/svg">
<path d="M10.0445 7.83882C10.0518 7.27384 10.2023 6.71987 10.4819 6.22847C10.7616 5.73707 11.1614 5.3242 11.6441 5.02828C11.3375 4.59157 10.9329 4.23217 10.4626 3.97863C9.99236 3.7251 9.46926 3.58441 8.9349 3.56774C7.79502 3.44842 6.68997 4.24791 6.10911 4.24791C5.51701 4.24791 4.62268 3.57958 3.65964 3.59934C3.03672 3.61941 2.42964 3.80004 1.89754 4.12364C1.36544 4.44724 0.926472 4.90277 0.623408 5.44584C-0.689398 7.7124 0.289837 11.0435 1.5474 12.8756C2.17658 13.7727 2.91191 14.7748 3.87408 14.7393C4.81563 14.7004 5.16727 14.1406 6.30379 14.1406C7.42977 14.1406 7.75969 14.7393 8.74138 14.7167C9.7517 14.7004 10.3882 13.8156 10.9954 12.91C11.4474 12.2707 11.7953 11.5642 12.0261 10.8166C11.4391 10.5691 10.9382 10.1547 10.5858 9.62515C10.2334 9.09561 10.0452 8.47434 10.0445 7.83882Z" fill="white"/>
<path d="M8.19023 2.36281C8.7411 1.70337 9.01249 0.855763 8.94677 0C8.10517 0.0881467 7.32776 0.489252 6.76945 1.1234C6.49648 1.43319 6.28741 1.7936 6.1542 2.18402C6.02099 2.57443 5.96624 2.98721 5.9931 3.39873C6.41405 3.40305 6.8305 3.31207 7.21108 3.13263C7.59166 2.95319 7.92645 2.68998 8.19023 2.36281Z" fill="white"/>
</svg>
