<svg width="13" height="15" viewBox="0 0 13 15" fill="none" xmlns="http://www.w3.org/2000/svg">
<path d="M0.101791 0.458825C0.0362208 0.607405 0 0.789437 0 1.00116V13.288C0 13.5003 0.0363224 13.6825 0.102067 13.8311L6.78758 7.14462L0.101791 0.458825Z" fill="white"/>
<path d="M0.488281 14.2306C0.736069 14.3365 1.05927 14.3029 1.41168 14.103L9.27668 9.63372L7.18042 7.53746L0.488281 14.2306Z" fill="white"/>
<path d="M9.77804 9.34939L12.2457 7.94737C13.0218 7.50569 13.0218 6.78402 12.2457 6.3429L9.77726 4.94026L7.57324 7.14459L9.77804 9.34939Z" fill="white"/>
<path d="M9.27626 4.65558L1.41168 0.186711C1.05908 -0.0136618 0.735722 -0.0470534 0.487881 0.0592308L7.1804 6.75175L9.27626 4.65558Z" fill="white"/>
</svg>
