<svg width="128" height="128" viewBox="0 0 128 128" fill="none" xmlns="http://www.w3.org/2000/svg">
<rect width="128" height="128" fill="white"/>
<path d="M6.91931 6.91943H10.3788V10.3789H6.91931V6.91943Z" fill="black"/>
<path d="M10.3788 6.91943H13.8382V10.3789H10.3788V6.91943Z" fill="black"/>
<path d="M13.8382 6.91943H17.2977V10.3789H13.8382V6.91943Z" fill="black"/>
<path d="M17.2977 6.91943H20.7571V10.3789H17.2977V6.91943Z" fill="black"/>
<path d="M20.7571 6.91943H24.2166V10.3789H20.7571V6.91943Z" fill="black"/>
<path d="M24.2166 6.91943H27.6761V10.3789H24.2166V6.91943Z" fill="black"/>
<path d="M27.6761 6.91943H31.1355V10.3789H27.6761V6.91943Z" fill="black"/>
<path d="M34.595 6.91943H38.0544V10.3789H34.595V6.91943Z" fill="black"/>
<path d="M38.0544 6.91943H41.5139V10.3789H38.0544V6.91943Z" fill="black"/>
<path d="M41.5139 6.91943H44.9734V10.3789H41.5139V6.91943Z" fill="black"/>
<path d="M48.4328 6.91943H51.8923V10.3789H48.4328V6.91943Z" fill="black"/>
<path d="M62.2707 6.91943H65.7301V10.3789H62.2707V6.91943Z" fill="black"/>
<path d="M65.7301 6.91943H69.1896V10.3789H65.7301V6.91943Z" fill="black"/>
<path d="M76.1085 6.91943H79.568V10.3789H76.1085V6.91943Z" fill="black"/>
<path d="M79.568 6.91943H83.0274V10.3789H79.568V6.91943Z" fill="black"/>
<path d="M86.4869 6.91943H89.9463V10.3789H86.4869V6.91943Z" fill="black"/>
<path d="M89.9463 6.91943H93.4058V10.3789H89.9463V6.91943Z" fill="black"/>
<path d="M96.8653 6.91943H100.325V10.3789H96.8653V6.91943Z" fill="black"/>
<path d="M100.325 6.91943H103.784V10.3789H100.325V6.91943Z" fill="black"/>
<path d="M103.784 6.91943H107.244V10.3789H103.784V6.91943Z" fill="black"/>
<path d="M107.244 6.91943H110.703V10.3789H107.244V6.91943Z" fill="black"/>
<path d="M110.703 6.91943H114.163V10.3789H110.703V6.91943Z" fill="black"/>
<path d="M114.163 6.91943H117.622V10.3789H114.163V6.91943Z" fill="black"/>
<path d="M117.622 6.91943H121.081V10.3789H117.622V6.91943Z" fill="black"/>
<path d="M6.91931 10.3789H10.3788V13.8384H6.91931V10.3789Z" fill="black"/>
<path d="M27.6761 10.3789H31.1355V13.8384H27.6761V10.3789Z" fill="black"/>
<path d="M34.595 10.3789H38.0544V13.8384H34.595V10.3789Z" fill="black"/>
<path d="M48.4328 10.3789H51.8923V13.8384H48.4328V10.3789Z" fill="black"/>
<path d="M55.3517 10.3789H58.8112V13.8384H55.3517V10.3789Z" fill="black"/>
<path d="M58.8112 10.3789H62.2707V13.8384H58.8112V10.3789Z" fill="black"/>
<path d="M62.2707 10.3789H65.7301V13.8384H62.2707V10.3789Z" fill="black"/>
<path d="M65.7301 10.3789H69.1896V13.8384H65.7301V10.3789Z" fill="black"/>
<path d="M72.649 10.3789H76.1085V13.8384H72.649V10.3789Z" fill="black"/>
<path d="M79.568 10.3789H83.0274V13.8384H79.568V10.3789Z" fill="black"/>
<path d="M83.0274 10.3789H86.4869V13.8384H83.0274V10.3789Z" fill="black"/>
<path d="M89.9463 10.3789H93.4058V13.8384H89.9463V10.3789Z" fill="black"/>
<path d="M96.8653 10.3789H100.325V13.8384H96.8653V10.3789Z" fill="black"/>
<path d="M117.622 10.3789H121.081V13.8384H117.622V10.3789Z" fill="black"/>
<path d="M6.91931 13.8384H10.3788V17.2978H6.91931V13.8384Z" fill="black"/>
<path d="M13.8382 13.8384H17.2977V17.2978H13.8382V13.8384Z" fill="black"/>
<path d="M17.2977 13.8384H20.7571V17.2978H17.2977V13.8384Z" fill="black"/>
<path d="M20.7571 13.8384H24.2166V17.2978H20.7571V13.8384Z" fill="black"/>
<path d="M27.6761 13.8384H31.1355V17.2978H27.6761V13.8384Z" fill="black"/>
<path d="M34.595 13.8384H38.0544V17.2978H34.595V13.8384Z" fill="black"/>
<path d="M38.0544 13.8384H41.5139V17.2978H38.0544V13.8384Z" fill="black"/>
<path d="M41.5139 13.8384H44.9734V17.2978H41.5139V13.8384Z" fill="black"/>
<path d="M44.9734 13.8384H48.4328V17.2978H44.9734V13.8384Z" fill="black"/>
<path d="M48.4328 13.8384H51.8923V17.2978H48.4328V13.8384Z" fill="black"/>
<path d="M55.3517 13.8384H58.8112V17.2978H55.3517V13.8384Z" fill="black"/>
<path d="M58.8112 13.8384H62.2707V17.2978H58.8112V13.8384Z" fill="black"/>
<path d="M69.1896 13.8384H72.649V17.2978H69.1896V13.8384Z" fill="black"/>
<path d="M76.1085 13.8384H79.568V17.2978H76.1085V13.8384Z" fill="black"/>
<path d="M79.568 13.8384H83.0274V17.2978H79.568V13.8384Z" fill="black"/>
<path d="M86.4869 13.8384H89.9463V17.2978H86.4869V13.8384Z" fill="black"/>
<path d="M89.9463 13.8384H93.4058V17.2978H89.9463V13.8384Z" fill="black"/>
<path d="M96.8653 13.8384H100.325V17.2978H96.8653V13.8384Z" fill="black"/>
<path d="M103.784 13.8384H107.244V17.2978H103.784V13.8384Z" fill="black"/>
<path d="M107.244 13.8384H110.703V17.2978H107.244V13.8384Z" fill="black"/>
<path d="M110.703 13.8384H114.163V17.2978H110.703V13.8384Z" fill="black"/>
<path d="M117.622 13.8384H121.081V17.2978H117.622V13.8384Z" fill="black"/>
<path d="M6.91931 17.2978H10.3788V20.7573H6.91931V17.2978Z" fill="black"/>
<path d="M13.8382 17.2978H17.2977V20.7573H13.8382V17.2978Z" fill="black"/>
<path d="M17.2977 17.2978H20.7571V20.7573H17.2977V17.2978Z" fill="black"/>
<path d="M20.7571 17.2978H24.2166V20.7573H20.7571V17.2978Z" fill="black"/>
<path d="M27.6761 17.2978H31.1355V20.7573H27.6761V17.2978Z" fill="black"/>
<path d="M41.5139 17.2978H44.9734V20.7573H41.5139V17.2978Z" fill="black"/>
<path d="M48.4328 17.2978H51.8923V20.7573H48.4328V17.2978Z" fill="black"/>
<path d="M51.8923 17.2978H55.3517V20.7573H51.8923V17.2978Z" fill="black"/>
<path d="M58.8112 17.2978H62.2707V20.7573H58.8112V17.2978Z" fill="black"/>
<path d="M62.2707 17.2978H65.7301V20.7573H62.2707V17.2978Z" fill="black"/>
<path d="M65.7301 17.2978H69.1896V20.7573H65.7301V17.2978Z" fill="black"/>
<path d="M83.0274 17.2978H86.4869V20.7573H83.0274V17.2978Z" fill="black"/>
<path d="M86.4869 17.2978H89.9463V20.7573H86.4869V17.2978Z" fill="black"/>
<path d="M96.8653 17.2978H100.325V20.7573H96.8653V17.2978Z" fill="black"/>
<path d="M103.784 17.2978H107.244V20.7573H103.784V17.2978Z" fill="black"/>
<path d="M107.244 17.2978H110.703V20.7573H107.244V17.2978Z" fill="black"/>
<path d="M110.703 17.2978H114.163V20.7573H110.703V17.2978Z" fill="black"/>
<path d="M117.622 17.2978H121.081V20.7573H117.622V17.2978Z" fill="black"/>
<path d="M6.91931 20.7573H10.3788V24.2167H6.91931V20.7573Z" fill="black"/>
<path d="M13.8382 20.7573H17.2977V24.2167H13.8382V20.7573Z" fill="black"/>
<path d="M17.2977 20.7573H20.7571V24.2167H17.2977V20.7573Z" fill="black"/>
<path d="M20.7571 20.7573H24.2166V24.2167H20.7571V20.7573Z" fill="black"/>
<path d="M27.6761 20.7573H31.1355V24.2167H27.6761V20.7573Z" fill="black"/>
<path d="M44.9734 20.7573H48.4328V24.2167H44.9734V20.7573Z" fill="black"/>
<path d="M51.8923 20.7573H55.3517V24.2167H51.8923V20.7573Z" fill="black"/>
<path d="M55.3517 20.7573H58.8112V24.2167H55.3517V20.7573Z" fill="black"/>
<path d="M69.1896 20.7573H72.649V24.2167H69.1896V20.7573Z" fill="black"/>
<path d="M72.649 20.7573H76.1085V24.2167H72.649V20.7573Z" fill="black"/>
<path d="M89.9463 20.7573H93.4058V24.2167H89.9463V20.7573Z" fill="black"/>
<path d="M96.8653 20.7573H100.325V24.2167H96.8653V20.7573Z" fill="black"/>
<path d="M103.784 20.7573H107.244V24.2167H103.784V20.7573Z" fill="black"/>
<path d="M107.244 20.7573H110.703V24.2167H107.244V20.7573Z" fill="black"/>
<path d="M110.703 20.7573H114.163V24.2167H110.703V20.7573Z" fill="black"/>
<path d="M117.622 20.7573H121.081V24.2167H117.622V20.7573Z" fill="black"/>
<path d="M6.91931 24.2167H10.3788V27.6762H6.91931V24.2167Z" fill="black"/>
<path d="M27.6761 24.2167H31.1355V27.6762H27.6761V24.2167Z" fill="black"/>
<path d="M34.595 24.2167H38.0544V27.6762H34.595V24.2167Z" fill="black"/>
<path d="M41.5139 24.2167H44.9734V27.6762H41.5139V24.2167Z" fill="black"/>
<path d="M48.4328 24.2167H51.8923V27.6762H48.4328V24.2167Z" fill="black"/>
<path d="M51.8923 24.2167H55.3517V27.6762H51.8923V24.2167Z" fill="black"/>
<path d="M55.3517 24.2167H58.8112V27.6762H55.3517V24.2167Z" fill="black"/>
<path d="M62.2707 24.2167H65.7301V27.6762H62.2707V24.2167Z" fill="black"/>
<path d="M65.7301 24.2167H69.1896V27.6762H65.7301V24.2167Z" fill="black"/>
<path d="M72.649 24.2167H76.1085V27.6762H72.649V24.2167Z" fill="black"/>
<path d="M83.0274 24.2167H86.4869V27.6762H83.0274V24.2167Z" fill="black"/>
<path d="M96.8653 24.2167H100.325V27.6762H96.8653V24.2167Z" fill="black"/>
<path d="M117.622 24.2167H121.081V27.6762H117.622V24.2167Z" fill="black"/>
<path d="M6.91931 27.6762H10.3788V31.1357H6.91931V27.6762Z" fill="black"/>
<path d="M10.3788 27.6762H13.8382V31.1357H10.3788V27.6762Z" fill="black"/>
<path d="M13.8382 27.6762H17.2977V31.1357H13.8382V27.6762Z" fill="black"/>
<path d="M17.2977 27.6762H20.7571V31.1357H17.2977V27.6762Z" fill="black"/>
<path d="M20.7571 27.6762H24.2166V31.1357H20.7571V27.6762Z" fill="black"/>
<path d="M24.2166 27.6762H27.6761V31.1357H24.2166V27.6762Z" fill="black"/>
<path d="M27.6761 27.6762H31.1355V31.1357H27.6761V27.6762Z" fill="black"/>
<path d="M34.595 27.6762H38.0544V31.1357H34.595V27.6762Z" fill="black"/>
<path d="M41.5139 27.6762H44.9734V31.1357H41.5139V27.6762Z" fill="black"/>
<path d="M48.4328 27.6762H51.8923V31.1357H48.4328V27.6762Z" fill="black"/>
<path d="M55.3517 27.6762H58.8112V31.1357H55.3517V27.6762Z" fill="black"/>
<path d="M62.2707 27.6762H65.7301V31.1357H62.2707V27.6762Z" fill="black"/>
<path d="M69.1896 27.6762H72.649V31.1357H69.1896V27.6762Z" fill="black"/>
<path d="M76.1085 27.6762H79.568V31.1357H76.1085V27.6762Z" fill="black"/>
<path d="M83.0274 27.6762H86.4869V31.1357H83.0274V27.6762Z" fill="black"/>
<path d="M89.9463 27.6762H93.4058V31.1357H89.9463V27.6762Z" fill="black"/>
<path d="M96.8653 27.6762H100.325V31.1357H96.8653V27.6762Z" fill="black"/>
<path d="M100.325 27.6762H103.784V31.1357H100.325V27.6762Z" fill="black"/>
<path d="M103.784 27.6762H107.244V31.1357H103.784V27.6762Z" fill="black"/>
<path d="M107.244 27.6762H110.703V31.1357H107.244V27.6762Z" fill="black"/>
<path d="M110.703 27.6762H114.163V31.1357H110.703V27.6762Z" fill="black"/>
<path d="M114.163 27.6762H117.622V31.1357H114.163V27.6762Z" fill="black"/>
<path d="M117.622 27.6762H121.081V31.1357H117.622V27.6762Z" fill="black"/>
<path d="M34.595 31.1357H38.0544V34.5951H34.595V31.1357Z" fill="black"/>
<path d="M41.5139 31.1357H44.9734V34.5951H41.5139V31.1357Z" fill="black"/>
<path d="M55.3517 31.1357H58.8112V34.5951H55.3517V31.1357Z" fill="black"/>
<path d="M58.8112 31.1357H62.2707V34.5951H58.8112V31.1357Z" fill="black"/>
<path d="M65.7301 31.1357H69.1896V34.5951H65.7301V31.1357Z" fill="black"/>
<path d="M72.649 31.1357H76.1085V34.5951H72.649V31.1357Z" fill="black"/>
<path d="M79.568 31.1357H83.0274V34.5951H79.568V31.1357Z" fill="black"/>
<path d="M83.0274 31.1357H86.4869V34.5951H83.0274V31.1357Z" fill="black"/>
<path d="M89.9463 31.1357H93.4058V34.5951H89.9463V31.1357Z" fill="black"/>
<path d="M13.8382 34.5951H17.2977V38.0546H13.8382V34.5951Z" fill="black"/>
<path d="M17.2977 34.5951H20.7571V38.0546H17.2977V34.5951Z" fill="black"/>
<path d="M20.7571 34.5951H24.2166V38.0546H20.7571V34.5951Z" fill="black"/>
<path d="M27.6761 34.5951H31.1355V38.0546H27.6761V34.5951Z" fill="black"/>
<path d="M34.595 34.5951H38.0544V38.0546H34.595V34.5951Z" fill="black"/>
<path d="M38.0544 34.5951H41.5139V38.0546H38.0544V34.5951Z" fill="black"/>
<path d="M44.9734 34.5951H48.4328V38.0546H44.9734V34.5951Z" fill="black"/>
<path d="M55.3517 34.5951H58.8112V38.0546H55.3517V34.5951Z" fill="black"/>
<path d="M62.2707 34.5951H65.7301V38.0546H62.2707V34.5951Z" fill="black"/>
<path d="M72.649 34.5951H76.1085V38.0546H72.649V34.5951Z" fill="black"/>
<path d="M83.0274 34.5951H86.4869V38.0546H83.0274V34.5951Z" fill="black"/>
<path d="M89.9463 34.5951H93.4058V38.0546H89.9463V34.5951Z" fill="black"/>
<path d="M93.4058 34.5951H96.8653V38.0546H93.4058V34.5951Z" fill="black"/>
<path d="M96.8653 34.5951H100.325V38.0546H96.8653V34.5951Z" fill="black"/>
<path d="M100.325 34.5951H103.784V38.0546H100.325V34.5951Z" fill="black"/>
<path d="M110.703 34.5951H114.163V38.0546H110.703V34.5951Z" fill="black"/>
<path d="M114.163 34.5951H117.622V38.0546H114.163V34.5951Z" fill="black"/>
<path d="M117.622 34.5951H121.081V38.0546H117.622V34.5951Z" fill="black"/>
<path d="M6.91931 38.0546H10.3788V41.514H6.91931V38.0546Z" fill="black"/>
<path d="M13.8382 38.0546H17.2977V41.514H13.8382V38.0546Z" fill="black"/>
<path d="M17.2977 38.0546H20.7571V41.514H17.2977V38.0546Z" fill="black"/>
<path d="M24.2166 38.0546H27.6761V41.514H24.2166V38.0546Z" fill="black"/>
<path d="M38.0544 38.0546H41.5139V41.514H38.0544V38.0546Z" fill="black"/>
<path d="M44.9734 38.0546H48.4328V41.514H44.9734V38.0546Z" fill="black"/>
<path d="M51.8923 38.0546H55.3517V41.514H51.8923V38.0546Z" fill="black"/>
<path d="M55.3517 38.0546H58.8112V41.514H55.3517V38.0546Z" fill="black"/>
<path d="M58.8112 38.0546H62.2707V41.514H58.8112V38.0546Z" fill="black"/>
<path d="M62.2707 38.0546H65.7301V41.514H62.2707V38.0546Z" fill="black"/>
<path d="M69.1896 38.0546H72.649V41.514H69.1896V38.0546Z" fill="black"/>
<path d="M86.4869 38.0546H89.9463V41.514H86.4869V38.0546Z" fill="black"/>
<path d="M93.4058 38.0546H96.8653V41.514H93.4058V38.0546Z" fill="black"/>
<path d="M96.8653 38.0546H100.325V41.514H96.8653V38.0546Z" fill="black"/>
<path d="M107.244 38.0546H110.703V41.514H107.244V38.0546Z" fill="black"/>
<path d="M114.163 38.0546H117.622V41.514H114.163V38.0546Z" fill="black"/>
<path d="M117.622 38.0546H121.081V41.514H117.622V38.0546Z" fill="black"/>
<path d="M17.2977 41.514H20.7571V44.9735H17.2977V41.514Z" fill="black"/>
<path d="M20.7571 41.514H24.2166V44.9735H20.7571V41.514Z" fill="black"/>
<path d="M27.6761 41.514H31.1355V44.9735H27.6761V41.514Z" fill="black"/>
<path d="M31.1355 41.514H34.595V44.9735H31.1355V41.514Z" fill="black"/>
<path d="M34.595 41.514H38.0544V44.9735H34.595V41.514Z" fill="black"/>
<path d="M38.0544 41.514H41.5139V44.9735H38.0544V41.514Z" fill="black"/>
<path d="M41.5139 41.514H44.9734V44.9735H41.5139V41.514Z" fill="black"/>
<path d="M44.9734 41.514H48.4328V44.9735H44.9734V41.514Z" fill="black"/>
<path d="M51.8923 41.514H55.3517V44.9735H51.8923V41.514Z" fill="black"/>
<path d="M55.3517 41.514H58.8112V44.9735H55.3517V41.514Z" fill="black"/>
<path d="M62.2707 41.514H65.7301V44.9735H62.2707V41.514Z" fill="black"/>
<path d="M76.1085 41.514H79.568V44.9735H76.1085V41.514Z" fill="black"/>
<path d="M83.0274 41.514H86.4869V44.9735H83.0274V41.514Z" fill="black"/>
<path d="M93.4058 41.514H96.8653V44.9735H93.4058V41.514Z" fill="black"/>
<path d="M96.8653 41.514H100.325V44.9735H96.8653V41.514Z" fill="black"/>
<path d="M100.325 41.514H103.784V44.9735H100.325V41.514Z" fill="black"/>
<path d="M107.244 41.514H110.703V44.9735H107.244V41.514Z" fill="black"/>
<path d="M110.703 41.514H114.163V44.9735H110.703V41.514Z" fill="black"/>
<path d="M114.163 41.514H117.622V44.9735H114.163V41.514Z" fill="black"/>
<path d="M10.3788 44.9735H13.8382V48.4329H10.3788V44.9735Z" fill="black"/>
<path d="M17.2977 44.9735H20.7571V48.4329H17.2977V44.9735Z" fill="black"/>
<path d="M24.2166 44.9735H27.6761V48.4329H24.2166V44.9735Z" fill="black"/>
<path d="M31.1355 44.9735H34.595V48.4329H31.1355V44.9735Z" fill="black"/>
<path d="M41.5139 44.9735H44.9734V48.4329H41.5139V44.9735Z" fill="black"/>
<path d="M44.9734 44.9735H48.4328V48.4329H44.9734V44.9735Z" fill="black"/>
<path d="M48.4328 44.9735H51.8923V48.4329H48.4328V44.9735Z" fill="black"/>
<path d="M51.8923 44.9735H55.3517V48.4329H51.8923V44.9735Z" fill="black"/>
<path d="M65.7301 44.9735H69.1896V48.4329H65.7301V44.9735Z" fill="black"/>
<path d="M69.1896 44.9735H72.649V48.4329H69.1896V44.9735Z" fill="black"/>
<path d="M76.1085 44.9735H79.568V48.4329H76.1085V44.9735Z" fill="black"/>
<path d="M86.4869 44.9735H89.9463V48.4329H86.4869V44.9735Z" fill="black"/>
<path d="M89.9463 44.9735H93.4058V48.4329H89.9463V44.9735Z" fill="black"/>
<path d="M96.8653 44.9735H100.325V48.4329H96.8653V44.9735Z" fill="black"/>
<path d="M107.244 44.9735H110.703V48.4329H107.244V44.9735Z" fill="black"/>
<path d="M110.703 44.9735H114.163V48.4329H110.703V44.9735Z" fill="black"/>
<path d="M114.163 44.9735H117.622V48.4329H114.163V44.9735Z" fill="black"/>
<path d="M117.622 44.9735H121.081V48.4329H117.622V44.9735Z" fill="black"/>
<path d="M6.91931 48.4329H10.3788V51.8924H6.91931V48.4329Z" fill="black"/>
<path d="M10.3788 48.4329H13.8382V51.8924H10.3788V48.4329Z" fill="black"/>
<path d="M20.7571 48.4329H24.2166V51.8924H20.7571V48.4329Z" fill="black"/>
<path d="M27.6761 48.4329H31.1355V51.8924H27.6761V48.4329Z" fill="black"/>
<path d="M31.1355 48.4329H34.595V51.8924H31.1355V48.4329Z" fill="black"/>
<path d="M38.0544 48.4329H41.5139V51.8924H38.0544V48.4329Z" fill="black"/>
<path d="M41.5139 48.4329H44.9734V51.8924H41.5139V48.4329Z" fill="black"/>
<path d="M79.568 48.4329H83.0274V51.8924H79.568V48.4329Z" fill="black"/>
<path d="M83.0274 48.4329H86.4869V51.8924H83.0274V48.4329Z" fill="black"/>
<path d="M93.4058 48.4329H96.8653V51.8924H93.4058V48.4329Z" fill="black"/>
<path d="M100.325 48.4329H103.784V51.8924H100.325V48.4329Z" fill="black"/>
<path d="M114.163 48.4329H117.622V51.8924H114.163V48.4329Z" fill="black"/>
<path d="M6.91931 51.8924H10.3788V55.3519H6.91931V51.8924Z" fill="black"/>
<path d="M10.3788 51.8924H13.8382V55.3519H10.3788V51.8924Z" fill="black"/>
<path d="M13.8382 51.8924H17.2977V55.3519H13.8382V51.8924Z" fill="black"/>
<path d="M20.7571 51.8924H24.2166V55.3519H20.7571V51.8924Z" fill="black"/>
<path d="M31.1355 51.8924H34.595V55.3519H31.1355V51.8924Z" fill="black"/>
<path d="M34.595 51.8924H38.0544V55.3519H34.595V51.8924Z" fill="black"/>
<path d="M38.0544 51.8924H41.5139V55.3519H38.0544V51.8924Z" fill="black"/>
<path d="M41.5139 51.8924H44.9734V55.3519H41.5139V51.8924Z" fill="black"/>
<path d="M86.4869 51.8924H89.9463V55.3519H86.4869V51.8924Z" fill="black"/>
<path d="M96.8653 51.8924H100.325V55.3519H96.8653V51.8924Z" fill="black"/>
<path d="M103.784 51.8924H107.244V55.3519H103.784V51.8924Z" fill="black"/>
<path d="M107.244 51.8924H110.703V55.3519H107.244V51.8924Z" fill="black"/>
<path d="M117.622 51.8924H121.081V55.3519H117.622V51.8924Z" fill="black"/>
<path d="M17.2977 55.3519H20.7571V58.8113H17.2977V55.3519Z" fill="black"/>
<path d="M27.6761 55.3519H31.1355V58.8113H27.6761V55.3519Z" fill="black"/>
<path d="M31.1355 55.3519H34.595V58.8113H31.1355V55.3519Z" fill="black"/>
<path d="M38.0544 55.3519H41.5139V58.8113H38.0544V55.3519Z" fill="black"/>
<path d="M44.9734 55.3519H48.4328V58.8113H44.9734V55.3519Z" fill="black"/>
<path d="M83.0274 55.3519H86.4869V58.8113H83.0274V55.3519Z" fill="black"/>
<path d="M100.325 55.3519H103.784V58.8113H100.325V55.3519Z" fill="black"/>
<path d="M103.784 55.3519H107.244V58.8113H103.784V55.3519Z" fill="black"/>
<path d="M114.163 55.3519H117.622V58.8113H114.163V55.3519Z" fill="black"/>
<path d="M6.91931 58.8113H10.3788V62.2708H6.91931V58.8113Z" fill="black"/>
<path d="M13.8382 58.8113H17.2977V62.2708H13.8382V58.8113Z" fill="black"/>
<path d="M31.1355 58.8113H34.595V62.2708H31.1355V58.8113Z" fill="black"/>
<path d="M34.595 58.8113H38.0544V62.2708H34.595V58.8113Z" fill="black"/>
<path d="M38.0544 58.8113H41.5139V62.2708H38.0544V58.8113Z" fill="black"/>
<path d="M41.5139 58.8113H44.9734V62.2708H41.5139V58.8113Z" fill="black"/>
<path d="M79.568 58.8113H83.0274V62.2708H79.568V58.8113Z" fill="black"/>
<path d="M83.0274 58.8113H86.4869V62.2708H83.0274V58.8113Z" fill="black"/>
<path d="M93.4058 58.8113H96.8653V62.2708H93.4058V58.8113Z" fill="black"/>
<path d="M103.784 58.8113H107.244V62.2708H103.784V58.8113Z" fill="black"/>
<path d="M107.244 58.8113H110.703V62.2708H107.244V58.8113Z" fill="black"/>
<path d="M117.622 58.8113H121.081V62.2708H117.622V58.8113Z" fill="black"/>
<path d="M6.91931 62.2708H10.3788V65.7302H6.91931V62.2708Z" fill="black"/>
<path d="M10.3788 62.2708H13.8382V65.7302H10.3788V62.2708Z" fill="black"/>
<path d="M13.8382 62.2708H17.2977V65.7302H13.8382V62.2708Z" fill="black"/>
<path d="M17.2977 62.2708H20.7571V65.7302H17.2977V62.2708Z" fill="black"/>
<path d="M27.6761 62.2708H31.1355V65.7302H27.6761V62.2708Z" fill="black"/>
<path d="M31.1355 62.2708H34.595V65.7302H31.1355V62.2708Z" fill="black"/>
<path d="M38.0544 62.2708H41.5139V65.7302H38.0544V62.2708Z" fill="black"/>
<path d="M44.9734 62.2708H48.4328V65.7302H44.9734V62.2708Z" fill="black"/>
<path d="M100.325 62.2708H103.784V65.7302H100.325V62.2708Z" fill="black"/>
<path d="M103.784 62.2708H107.244V65.7302H103.784V62.2708Z" fill="black"/>
<path d="M110.703 62.2708H114.163V65.7302H110.703V62.2708Z" fill="black"/>
<path d="M117.622 62.2708H121.081V65.7302H117.622V62.2708Z" fill="black"/>
<path d="M10.3788 65.7302H13.8382V69.1897H10.3788V65.7302Z" fill="black"/>
<path d="M13.8382 65.7302H17.2977V69.1897H13.8382V65.7302Z" fill="black"/>
<path d="M20.7571 65.7302H24.2166V69.1897H20.7571V65.7302Z" fill="black"/>
<path d="M34.595 65.7302H38.0544V69.1897H34.595V65.7302Z" fill="black"/>
<path d="M38.0544 65.7302H41.5139V69.1897H38.0544V65.7302Z" fill="black"/>
<path d="M41.5139 65.7302H44.9734V69.1897H41.5139V65.7302Z" fill="black"/>
<path d="M86.4869 65.7302H89.9463V69.1897H86.4869V65.7302Z" fill="black"/>
<path d="M89.9463 65.7302H93.4058V69.1897H89.9463V65.7302Z" fill="black"/>
<path d="M96.8653 65.7302H100.325V69.1897H96.8653V65.7302Z" fill="black"/>
<path d="M10.3788 69.1897H13.8382V72.6492H10.3788V69.1897Z" fill="black"/>
<path d="M13.8382 69.1897H17.2977V72.6492H13.8382V69.1897Z" fill="black"/>
<path d="M17.2977 69.1897H20.7571V72.6492H17.2977V69.1897Z" fill="black"/>
<path d="M24.2166 69.1897H27.6761V72.6492H24.2166V69.1897Z" fill="black"/>
<path d="M27.6761 69.1897H31.1355V72.6492H27.6761V69.1897Z" fill="black"/>
<path d="M34.595 69.1897H38.0544V72.6492H34.595V69.1897Z" fill="black"/>
<path d="M44.9734 69.1897H48.4328V72.6492H44.9734V69.1897Z" fill="black"/>
<path d="M83.0274 69.1897H86.4869V72.6492H83.0274V69.1897Z" fill="black"/>
<path d="M100.325 69.1897H103.784V72.6492H100.325V69.1897Z" fill="black"/>
<path d="M103.784 69.1897H107.244V72.6492H103.784V69.1897Z" fill="black"/>
<path d="M110.703 69.1897H114.163V72.6492H110.703V69.1897Z" fill="black"/>
<path d="M6.91931 72.6492H10.3788V76.1086H6.91931V72.6492Z" fill="black"/>
<path d="M17.2977 72.6492H20.7571V76.1086H17.2977V72.6492Z" fill="black"/>
<path d="M24.2166 72.6492H27.6761V76.1086H24.2166V72.6492Z" fill="black"/>
<path d="M34.595 72.6492H38.0544V76.1086H34.595V72.6492Z" fill="black"/>
<path d="M79.568 72.6492H83.0274V76.1086H79.568V72.6492Z" fill="black"/>
<path d="M86.4869 72.6492H89.9463V76.1086H86.4869V72.6492Z" fill="black"/>
<path d="M89.9463 72.6492H93.4058V76.1086H89.9463V72.6492Z" fill="black"/>
<path d="M93.4058 72.6492H96.8653V76.1086H93.4058V72.6492Z" fill="black"/>
<path d="M100.325 72.6492H103.784V76.1086H100.325V72.6492Z" fill="black"/>
<path d="M107.244 72.6492H110.703V76.1086H107.244V72.6492Z" fill="black"/>
<path d="M110.703 72.6492H114.163V76.1086H110.703V72.6492Z" fill="black"/>
<path d="M114.163 72.6492H117.622V76.1086H114.163V72.6492Z" fill="black"/>
<path d="M117.622 72.6492H121.081V76.1086H117.622V72.6492Z" fill="black"/>
<path d="M13.8382 76.1086H17.2977V79.5681H13.8382V76.1086Z" fill="black"/>
<path d="M20.7571 76.1086H24.2166V79.5681H20.7571V76.1086Z" fill="black"/>
<path d="M27.6761 76.1086H31.1355V79.5681H27.6761V76.1086Z" fill="black"/>
<path d="M34.595 76.1086H38.0544V79.5681H34.595V76.1086Z" fill="black"/>
<path d="M38.0544 76.1086H41.5139V79.5681H38.0544V76.1086Z" fill="black"/>
<path d="M44.9734 76.1086H48.4328V79.5681H44.9734V76.1086Z" fill="black"/>
<path d="M83.0274 76.1086H86.4869V79.5681H83.0274V76.1086Z" fill="black"/>
<path d="M89.9463 76.1086H93.4058V79.5681H89.9463V76.1086Z" fill="black"/>
<path d="M100.325 76.1086H103.784V79.5681H100.325V76.1086Z" fill="black"/>
<path d="M103.784 76.1086H107.244V79.5681H103.784V76.1086Z" fill="black"/>
<path d="M107.244 76.1086H110.703V79.5681H107.244V76.1086Z" fill="black"/>
<path d="M114.163 76.1086H117.622V79.5681H114.163V76.1086Z" fill="black"/>
<path d="M117.622 76.1086H121.081V79.5681H117.622V76.1086Z" fill="black"/>
<path d="M6.91931 79.5681H10.3788V83.0275H6.91931V79.5681Z" fill="black"/>
<path d="M13.8382 79.5681H17.2977V83.0275H13.8382V79.5681Z" fill="black"/>
<path d="M17.2977 79.5681H20.7571V83.0275H17.2977V79.5681Z" fill="black"/>
<path d="M31.1355 79.5681H34.595V83.0275H31.1355V79.5681Z" fill="black"/>
<path d="M34.595 79.5681H38.0544V83.0275H34.595V79.5681Z" fill="black"/>
<path d="M41.5139 79.5681H44.9734V83.0275H41.5139V79.5681Z" fill="black"/>
<path d="M51.8923 79.5681H55.3517V83.0275H51.8923V79.5681Z" fill="black"/>
<path d="M58.8112 79.5681H62.2707V83.0275H58.8112V79.5681Z" fill="black"/>
<path d="M65.7301 79.5681H69.1896V83.0275H65.7301V79.5681Z" fill="black"/>
<path d="M69.1896 79.5681H72.649V83.0275H69.1896V79.5681Z" fill="black"/>
<path d="M72.649 79.5681H76.1085V83.0275H72.649V79.5681Z" fill="black"/>
<path d="M76.1085 79.5681H79.568V83.0275H76.1085V79.5681Z" fill="black"/>
<path d="M83.0274 79.5681H86.4869V83.0275H83.0274V79.5681Z" fill="black"/>
<path d="M93.4058 79.5681H96.8653V83.0275H93.4058V79.5681Z" fill="black"/>
<path d="M100.325 79.5681H103.784V83.0275H100.325V79.5681Z" fill="black"/>
<path d="M107.244 79.5681H110.703V83.0275H107.244V79.5681Z" fill="black"/>
<path d="M110.703 79.5681H114.163V83.0275H110.703V79.5681Z" fill="black"/>
<path d="M117.622 79.5681H121.081V83.0275H117.622V79.5681Z" fill="black"/>
<path d="M6.91931 83.0275H10.3788V86.487H6.91931V83.0275Z" fill="black"/>
<path d="M13.8382 83.0275H17.2977V86.487H13.8382V83.0275Z" fill="black"/>
<path d="M17.2977 83.0275H20.7571V86.487H17.2977V83.0275Z" fill="black"/>
<path d="M20.7571 83.0275H24.2166V86.487H20.7571V83.0275Z" fill="black"/>
<path d="M27.6761 83.0275H31.1355V86.487H27.6761V83.0275Z" fill="black"/>
<path d="M41.5139 83.0275H44.9734V86.487H41.5139V83.0275Z" fill="black"/>
<path d="M51.8923 83.0275H55.3517V86.487H51.8923V83.0275Z" fill="black"/>
<path d="M58.8112 83.0275H62.2707V86.487H58.8112V83.0275Z" fill="black"/>
<path d="M62.2707 83.0275H65.7301V86.487H62.2707V83.0275Z" fill="black"/>
<path d="M65.7301 83.0275H69.1896V86.487H65.7301V83.0275Z" fill="black"/>
<path d="M72.649 83.0275H76.1085V86.487H72.649V83.0275Z" fill="black"/>
<path d="M76.1085 83.0275H79.568V86.487H76.1085V83.0275Z" fill="black"/>
<path d="M79.568 83.0275H83.0274V86.487H79.568V83.0275Z" fill="black"/>
<path d="M83.0274 83.0275H86.4869V86.487H83.0274V83.0275Z" fill="black"/>
<path d="M86.4869 83.0275H89.9463V86.487H86.4869V83.0275Z" fill="black"/>
<path d="M89.9463 83.0275H93.4058V86.487H89.9463V83.0275Z" fill="black"/>
<path d="M103.784 83.0275H107.244V86.487H103.784V83.0275Z" fill="black"/>
<path d="M107.244 83.0275H110.703V86.487H107.244V83.0275Z" fill="black"/>
<path d="M114.163 83.0275H117.622V86.487H114.163V83.0275Z" fill="black"/>
<path d="M6.91931 86.487H10.3788V89.9465H6.91931V86.487Z" fill="black"/>
<path d="M17.2977 86.487H20.7571V89.9465H17.2977V86.487Z" fill="black"/>
<path d="M20.7571 86.487H24.2166V89.9465H20.7571V86.487Z" fill="black"/>
<path d="M41.5139 86.487H44.9734V89.9465H41.5139V86.487Z" fill="black"/>
<path d="M51.8923 86.487H55.3517V89.9465H51.8923V86.487Z" fill="black"/>
<path d="M55.3517 86.487H58.8112V89.9465H55.3517V86.487Z" fill="black"/>
<path d="M58.8112 86.487H62.2707V89.9465H58.8112V86.487Z" fill="black"/>
<path d="M62.2707 86.487H65.7301V89.9465H62.2707V86.487Z" fill="black"/>
<path d="M72.649 86.487H76.1085V89.9465H72.649V86.487Z" fill="black"/>
<path d="M79.568 86.487H83.0274V89.9465H79.568V86.487Z" fill="black"/>
<path d="M83.0274 86.487H86.4869V89.9465H83.0274V86.487Z" fill="black"/>
<path d="M86.4869 86.487H89.9463V89.9465H86.4869V86.487Z" fill="black"/>
<path d="M107.244 86.487H110.703V89.9465H107.244V86.487Z" fill="black"/>
<path d="M110.703 86.487H114.163V89.9465H110.703V86.487Z" fill="black"/>
<path d="M114.163 86.487H117.622V89.9465H114.163V86.487Z" fill="black"/>
<path d="M6.91931 89.9465H10.3788V93.4059H6.91931V89.9465Z" fill="black"/>
<path d="M20.7571 89.9465H24.2166V93.4059H20.7571V89.9465Z" fill="black"/>
<path d="M24.2166 89.9465H27.6761V93.4059H24.2166V89.9465Z" fill="black"/>
<path d="M27.6761 89.9465H31.1355V93.4059H27.6761V89.9465Z" fill="black"/>
<path d="M34.595 89.9465H38.0544V93.4059H34.595V89.9465Z" fill="black"/>
<path d="M44.9734 89.9465H48.4328V93.4059H44.9734V89.9465Z" fill="black"/>
<path d="M51.8923 89.9465H55.3517V93.4059H51.8923V89.9465Z" fill="black"/>
<path d="M55.3517 89.9465H58.8112V93.4059H55.3517V89.9465Z" fill="black"/>
<path d="M58.8112 89.9465H62.2707V93.4059H58.8112V89.9465Z" fill="black"/>
<path d="M62.2707 89.9465H65.7301V93.4059H62.2707V89.9465Z" fill="black"/>
<path d="M65.7301 89.9465H69.1896V93.4059H65.7301V89.9465Z" fill="black"/>
<path d="M72.649 89.9465H76.1085V93.4059H72.649V89.9465Z" fill="black"/>
<path d="M86.4869 89.9465H89.9463V93.4059H86.4869V89.9465Z" fill="black"/>
<path d="M89.9463 89.9465H93.4058V93.4059H89.9463V89.9465Z" fill="black"/>
<path d="M93.4058 89.9465H96.8653V93.4059H93.4058V89.9465Z" fill="black"/>
<path d="M96.8653 89.9465H100.325V93.4059H96.8653V89.9465Z" fill="black"/>
<path d="M100.325 89.9465H103.784V93.4059H100.325V89.9465Z" fill="black"/>
<path d="M103.784 89.9465H107.244V93.4059H103.784V89.9465Z" fill="black"/>
<path d="M107.244 89.9465H110.703V93.4059H107.244V89.9465Z" fill="black"/>
<path d="M114.163 89.9465H117.622V93.4059H114.163V89.9465Z" fill="black"/>
<path d="M34.595 93.4059H38.0544V96.8654H34.595V93.4059Z" fill="black"/>
<path d="M38.0544 93.4059H41.5139V96.8654H38.0544V93.4059Z" fill="black"/>
<path d="M41.5139 93.4059H44.9734V96.8654H41.5139V93.4059Z" fill="black"/>
<path d="M44.9734 93.4059H48.4328V96.8654H44.9734V93.4059Z" fill="black"/>
<path d="M65.7301 93.4059H69.1896V96.8654H65.7301V93.4059Z" fill="black"/>
<path d="M69.1896 93.4059H72.649V96.8654H69.1896V93.4059Z" fill="black"/>
<path d="M76.1085 93.4059H79.568V96.8654H76.1085V93.4059Z" fill="black"/>
<path d="M79.568 93.4059H83.0274V96.8654H79.568V93.4059Z" fill="black"/>
<path d="M89.9463 93.4059H93.4058V96.8654H89.9463V93.4059Z" fill="black"/>
<path d="M103.784 93.4059H107.244V96.8654H103.784V93.4059Z" fill="black"/>
<path d="M107.244 93.4059H110.703V96.8654H107.244V93.4059Z" fill="black"/>
<path d="M114.163 93.4059H117.622V96.8654H114.163V93.4059Z" fill="black"/>
<path d="M117.622 93.4059H121.081V96.8654H117.622V93.4059Z" fill="black"/>
<path d="M6.91931 96.8654H10.3788V100.325H6.91931V96.8654Z" fill="black"/>
<path d="M10.3788 96.8654H13.8382V100.325H10.3788V96.8654Z" fill="black"/>
<path d="M13.8382 96.8654H17.2977V100.325H13.8382V96.8654Z" fill="black"/>
<path d="M17.2977 96.8654H20.7571V100.325H17.2977V96.8654Z" fill="black"/>
<path d="M20.7571 96.8654H24.2166V100.325H20.7571V96.8654Z" fill="black"/>
<path d="M24.2166 96.8654H27.6761V100.325H24.2166V96.8654Z" fill="black"/>
<path d="M27.6761 96.8654H31.1355V100.325H27.6761V96.8654Z" fill="black"/>
<path d="M44.9734 96.8654H48.4328V100.325H44.9734V96.8654Z" fill="black"/>
<path d="M51.8923 96.8654H55.3517V100.325H51.8923V96.8654Z" fill="black"/>
<path d="M55.3517 96.8654H58.8112V100.325H55.3517V96.8654Z" fill="black"/>
<path d="M58.8112 96.8654H62.2707V100.325H58.8112V96.8654Z" fill="black"/>
<path d="M65.7301 96.8654H69.1896V100.325H65.7301V96.8654Z" fill="black"/>
<path d="M69.1896 96.8654H72.649V100.325H69.1896V96.8654Z" fill="black"/>
<path d="M79.568 96.8654H83.0274V100.325H79.568V96.8654Z" fill="black"/>
<path d="M86.4869 96.8654H89.9463V100.325H86.4869V96.8654Z" fill="black"/>
<path d="M89.9463 96.8654H93.4058V100.325H89.9463V96.8654Z" fill="black"/>
<path d="M96.8653 96.8654H100.325V100.325H96.8653V96.8654Z" fill="black"/>
<path d="M103.784 96.8654H107.244V100.325H103.784V96.8654Z" fill="black"/>
<path d="M107.244 96.8654H110.703V100.325H107.244V96.8654Z" fill="black"/>
<path d="M114.163 96.8654H117.622V100.325H114.163V96.8654Z" fill="black"/>
<path d="M6.91931 100.325H10.3788V103.784H6.91931V100.325Z" fill="black"/>
<path d="M27.6761 100.325H31.1355V103.784H27.6761V100.325Z" fill="black"/>
<path d="M41.5139 100.325H44.9734V103.784H41.5139V100.325Z" fill="black"/>
<path d="M44.9734 100.325H48.4328V103.784H44.9734V100.325Z" fill="black"/>
<path d="M48.4328 100.325H51.8923V103.784H48.4328V100.325Z" fill="black"/>
<path d="M51.8923 100.325H55.3517V103.784H51.8923V100.325Z" fill="black"/>
<path d="M65.7301 100.325H69.1896V103.784H65.7301V100.325Z" fill="black"/>
<path d="M69.1896 100.325H72.649V103.784H69.1896V100.325Z" fill="black"/>
<path d="M76.1085 100.325H79.568V103.784H76.1085V100.325Z" fill="black"/>
<path d="M79.568 100.325H83.0274V103.784H79.568V100.325Z" fill="black"/>
<path d="M83.0274 100.325H86.4869V103.784H83.0274V100.325Z" fill="black"/>
<path d="M86.4869 100.325H89.9463V103.784H86.4869V100.325Z" fill="black"/>
<path d="M89.9463 100.325H93.4058V103.784H89.9463V100.325Z" fill="black"/>
<path d="M103.784 100.325H107.244V103.784H103.784V100.325Z" fill="black"/>
<path d="M107.244 100.325H110.703V103.784H107.244V100.325Z" fill="black"/>
<path d="M110.703 100.325H114.163V103.784H110.703V100.325Z" fill="black"/>
<path d="M114.163 100.325H117.622V103.784H114.163V100.325Z" fill="black"/>
<path d="M117.622 100.325H121.081V103.784H117.622V100.325Z" fill="black"/>
<path d="M6.91931 103.784H10.3788V107.244H6.91931V103.784Z" fill="black"/>
<path d="M13.8382 103.784H17.2977V107.244H13.8382V103.784Z" fill="black"/>
<path d="M17.2977 103.784H20.7571V107.244H17.2977V103.784Z" fill="black"/>
<path d="M20.7571 103.784H24.2166V107.244H20.7571V103.784Z" fill="black"/>
<path d="M27.6761 103.784H31.1355V107.244H27.6761V103.784Z" fill="black"/>
<path d="M34.595 103.784H38.0544V107.244H34.595V103.784Z" fill="black"/>
<path d="M38.0544 103.784H41.5139V107.244H38.0544V103.784Z" fill="black"/>
<path d="M41.5139 103.784H44.9734V107.244H41.5139V103.784Z" fill="black"/>
<path d="M48.4328 103.784H51.8923V107.244H48.4328V103.784Z" fill="black"/>
<path d="M51.8923 103.784H55.3517V107.244H51.8923V103.784Z" fill="black"/>
<path d="M55.3517 103.784H58.8112V107.244H55.3517V103.784Z" fill="black"/>
<path d="M58.8112 103.784H62.2707V107.244H58.8112V103.784Z" fill="black"/>
<path d="M65.7301 103.784H69.1896V107.244H65.7301V103.784Z" fill="black"/>
<path d="M69.1896 103.784H72.649V107.244H69.1896V103.784Z" fill="black"/>
<path d="M79.568 103.784H83.0274V107.244H79.568V103.784Z" fill="black"/>
<path d="M89.9463 103.784H93.4058V107.244H89.9463V103.784Z" fill="black"/>
<path d="M93.4058 103.784H96.8653V107.244H93.4058V103.784Z" fill="black"/>
<path d="M96.8653 103.784H100.325V107.244H96.8653V103.784Z" fill="black"/>
<path d="M100.325 103.784H103.784V107.244H100.325V103.784Z" fill="black"/>
<path d="M103.784 103.784H107.244V107.244H103.784V103.784Z" fill="black"/>
<path d="M107.244 103.784H110.703V107.244H107.244V103.784Z" fill="black"/>
<path d="M114.163 103.784H117.622V107.244H114.163V103.784Z" fill="black"/>
<path d="M117.622 103.784H121.081V107.244H117.622V103.784Z" fill="black"/>
<path d="M6.91931 107.244H10.3788V110.703H6.91931V107.244Z" fill="black"/>
<path d="M13.8382 107.244H17.2977V110.703H13.8382V107.244Z" fill="black"/>
<path d="M17.2977 107.244H20.7571V110.703H17.2977V107.244Z" fill="black"/>
<path d="M20.7571 107.244H24.2166V110.703H20.7571V107.244Z" fill="black"/>
<path d="M27.6761 107.244H31.1355V110.703H27.6761V107.244Z" fill="black"/>
<path d="M34.595 107.244H38.0544V110.703H34.595V107.244Z" fill="black"/>
<path d="M38.0544 107.244H41.5139V110.703H38.0544V107.244Z" fill="black"/>
<path d="M44.9734 107.244H48.4328V110.703H44.9734V107.244Z" fill="black"/>
<path d="M48.4328 107.244H51.8923V110.703H48.4328V107.244Z" fill="black"/>
<path d="M58.8112 107.244H62.2707V110.703H58.8112V107.244Z" fill="black"/>
<path d="M62.2707 107.244H65.7301V110.703H62.2707V107.244Z" fill="black"/>
<path d="M65.7301 107.244H69.1896V110.703H65.7301V107.244Z" fill="black"/>
<path d="M69.1896 107.244H72.649V110.703H69.1896V107.244Z" fill="black"/>
<path d="M83.0274 107.244H86.4869V110.703H83.0274V107.244Z" fill="black"/>
<path d="M93.4058 107.244H96.8653V110.703H93.4058V107.244Z" fill="black"/>
<path d="M103.784 107.244H107.244V110.703H103.784V107.244Z" fill="black"/>
<path d="M110.703 107.244H114.163V110.703H110.703V107.244Z" fill="black"/>
<path d="M114.163 107.244H117.622V110.703H114.163V107.244Z" fill="black"/>
<path d="M6.91931 110.703H10.3788V114.163H6.91931V110.703Z" fill="black"/>
<path d="M13.8382 110.703H17.2977V114.163H13.8382V110.703Z" fill="black"/>
<path d="M17.2977 110.703H20.7571V114.163H17.2977V110.703Z" fill="black"/>
<path d="M20.7571 110.703H24.2166V114.163H20.7571V110.703Z" fill="black"/>
<path d="M27.6761 110.703H31.1355V114.163H27.6761V110.703Z" fill="black"/>
<path d="M34.595 110.703H38.0544V114.163H34.595V110.703Z" fill="black"/>
<path d="M44.9734 110.703H48.4328V114.163H44.9734V110.703Z" fill="black"/>
<path d="M48.4328 110.703H51.8923V114.163H48.4328V110.703Z" fill="black"/>
<path d="M62.2707 110.703H65.7301V114.163H62.2707V110.703Z" fill="black"/>
<path d="M69.1896 110.703H72.649V114.163H69.1896V110.703Z" fill="black"/>
<path d="M72.649 110.703H76.1085V114.163H72.649V110.703Z" fill="black"/>
<path d="M83.0274 110.703H86.4869V114.163H83.0274V110.703Z" fill="black"/>
<path d="M86.4869 110.703H89.9463V114.163H86.4869V110.703Z" fill="black"/>
<path d="M93.4058 110.703H96.8653V114.163H93.4058V110.703Z" fill="black"/>
<path d="M96.8653 110.703H100.325V114.163H96.8653V110.703Z" fill="black"/>
<path d="M107.244 110.703H110.703V114.163H107.244V110.703Z" fill="black"/>
<path d="M110.703 110.703H114.163V114.163H110.703V110.703Z" fill="black"/>
<path d="M6.91931 114.163H10.3788V117.622H6.91931V114.163Z" fill="black"/>
<path d="M27.6761 114.163H31.1355V117.622H27.6761V114.163Z" fill="black"/>
<path d="M38.0544 114.163H41.5139V117.622H38.0544V114.163Z" fill="black"/>
<path d="M41.5139 114.163H44.9734V117.622H41.5139V114.163Z" fill="black"/>
<path d="M48.4328 114.163H51.8923V117.622H48.4328V114.163Z" fill="black"/>
<path d="M51.8923 114.163H55.3517V117.622H51.8923V114.163Z" fill="black"/>
<path d="M55.3517 114.163H58.8112V117.622H55.3517V114.163Z" fill="black"/>
<path d="M58.8112 114.163H62.2707V117.622H58.8112V114.163Z" fill="black"/>
<path d="M65.7301 114.163H69.1896V117.622H65.7301V114.163Z" fill="black"/>
<path d="M72.649 114.163H76.1085V117.622H72.649V114.163Z" fill="black"/>
<path d="M93.4058 114.163H96.8653V117.622H93.4058V114.163Z" fill="black"/>
<path d="M100.325 114.163H103.784V117.622H100.325V114.163Z" fill="black"/>
<path d="M110.703 114.163H114.163V117.622H110.703V114.163Z" fill="black"/>
<path d="M6.91931 117.622H10.3788V121.082H6.91931V117.622Z" fill="black"/>
<path d="M10.3788 117.622H13.8382V121.082H10.3788V117.622Z" fill="black"/>
<path d="M13.8382 117.622H17.2977V121.082H13.8382V117.622Z" fill="black"/>
<path d="M17.2977 117.622H20.7571V121.082H17.2977V117.622Z" fill="black"/>
<path d="M20.7571 117.622H24.2166V121.082H20.7571V117.622Z" fill="black"/>
<path d="M24.2166 117.622H27.6761V121.082H24.2166V117.622Z" fill="black"/>
<path d="M27.6761 117.622H31.1355V121.082H27.6761V117.622Z" fill="black"/>
<path d="M38.0544 117.622H41.5139V121.082H38.0544V117.622Z" fill="black"/>
<path d="M41.5139 117.622H44.9734V121.082H41.5139V117.622Z" fill="black"/>
<path d="M44.9734 117.622H48.4328V121.082H44.9734V117.622Z" fill="black"/>
<path d="M48.4328 117.622H51.8923V121.082H48.4328V117.622Z" fill="black"/>
<path d="M51.8923 117.622H55.3517V121.082H51.8923V117.622Z" fill="black"/>
<path d="M58.8112 117.622H62.2707V121.082H58.8112V117.622Z" fill="black"/>
<path d="M79.568 117.622H83.0274V121.082H79.568V117.622Z" fill="black"/>
<path d="M83.0274 117.622H86.4869V121.082H83.0274V117.622Z" fill="black"/>
<path d="M86.4869 117.622H89.9463V121.082H86.4869V117.622Z" fill="black"/>
<path d="M89.9463 117.622H93.4058V121.082H89.9463V117.622Z" fill="black"/>
<path d="M93.4058 117.622H96.8653V121.082H93.4058V117.622Z" fill="black"/>
<path d="M96.8653 117.622H100.325V121.082H96.8653V117.622Z" fill="black"/>
<path d="M107.244 117.622H110.703V121.082H107.244V117.622Z" fill="black"/>
<path d="M110.703 117.622H114.163V121.082H110.703V117.622Z" fill="black"/>
<path d="M114.163 117.622H117.622V121.082H114.163V117.622Z" fill="black"/>
<path d="M10.3788 6.91943H6.91931V10.3789M10.3788 6.91943V10.3789M10.3788 6.91943H13.8382M10.3788 10.3789H6.91931M10.3788 10.3789H13.8382M10.3788 10.3789V13.8384M6.91931 10.3789V13.8384M13.8382 6.91943V10.3789M13.8382 6.91943H17.2977M13.8382 10.3789H17.2977M17.2977 6.91943V10.3789M17.2977 6.91943H20.7571M17.2977 10.3789H20.7571M20.7571 6.91943V10.3789M20.7571 6.91943H24.2166M20.7571 10.3789H24.2166M24.2166 6.91943V10.3789M24.2166 6.91943H27.6761M24.2166 10.3789H27.6761M27.6761 6.91943V10.3789M27.6761 6.91943H31.1355V10.3789M27.6761 10.3789H31.1355M27.6761 10.3789V13.8384M31.1355 10.3789V13.8384M38.0544 6.91943H34.595V10.3789M38.0544 6.91943V10.3789M38.0544 6.91943H41.5139M38.0544 10.3789H34.595M38.0544 10.3789H41.5139M38.0544 10.3789V13.8384M34.595 10.3789V13.8384M41.5139 6.91943V10.3789M41.5139 6.91943H44.9734V10.3789H41.5139M51.8923 10.3789V6.91943H48.4328V10.3789M51.8923 10.3789H48.4328M51.8923 10.3789V13.8384M48.4328 10.3789V13.8384M65.7301 6.91943H62.2707V10.3789M65.7301 6.91943V10.3789M65.7301 6.91943H69.1896V10.3789M65.7301 10.3789H62.2707M65.7301 10.3789H69.1896M65.7301 10.3789V13.8384M62.2707 10.3789H58.8112M62.2707 10.3789V13.8384M69.1896 10.3789V13.8384M79.568 6.91943H76.1085V10.3789M79.568 6.91943V10.3789M79.568 6.91943H83.0274V10.3789M79.568 10.3789H76.1085M79.568 10.3789H83.0274M79.568 10.3789V13.8384M76.1085 10.3789H72.649V13.8384M76.1085 10.3789V13.8384M83.0274 10.3789V13.8384M83.0274 10.3789H86.4869M89.9463 6.91943H86.4869V10.3789M89.9463 6.91943V10.3789M89.9463 6.91943H93.4058V10.3789M89.9463 10.3789H86.4869M89.9463 10.3789H93.4058M89.9463 10.3789V13.8384M86.4869 10.3789V13.8384M93.4058 10.3789V13.8384M100.325 6.91943H96.8653V10.3789M100.325 6.91943V10.3789M100.325 6.91943H103.784M100.325 10.3789H96.8653M100.325 10.3789H103.784M100.325 10.3789V13.8384M96.8653 10.3789V13.8384M103.784 6.91943V10.3789M103.784 6.91943H107.244M103.784 10.3789H107.244M107.244 6.91943V10.3789M107.244 6.91943H110.703M107.244 10.3789H110.703M110.703 6.91943V10.3789M110.703 6.91943H114.163M110.703 10.3789H114.163M114.163 6.91943V10.3789M114.163 6.91943H117.622M114.163 10.3789H117.622M117.622 6.91943V10.3789M117.622 6.91943H121.081V10.3789M117.622 10.3789H121.081M117.622 10.3789V13.8384M121.081 10.3789V13.8384M10.3788 13.8384H6.91931M10.3788 13.8384V17.2978M6.91931 13.8384V17.2978M31.1355 13.8384H27.6761M31.1355 13.8384V17.2978M27.6761 13.8384V17.2978M38.0544 13.8384H34.595M38.0544 13.8384V17.2978M38.0544 13.8384H41.5139M34.595 13.8384V17.2978H38.0544M51.8923 13.8384H48.4328M51.8923 13.8384V17.2978M48.4328 13.8384H44.9734M48.4328 13.8384V17.2978M58.8112 10.3789H55.3517V13.8384M58.8112 10.3789V13.8384M58.8112 13.8384H55.3517M58.8112 13.8384H62.2707M58.8112 13.8384V17.2978M55.3517 13.8384V17.2978M62.2707 13.8384H65.7301M62.2707 13.8384V17.2978M65.7301 13.8384H69.1896M69.1896 13.8384H72.649M69.1896 13.8384V17.2978M76.1085 13.8384H72.649M76.1085 13.8384H79.568M76.1085 13.8384V17.2978H79.568M72.649 13.8384V17.2978H69.1896M83.0274 13.8384H79.568M83.0274 13.8384H86.4869M83.0274 13.8384V17.2978M79.568 13.8384V17.2978M86.4869 13.8384H89.9463M86.4869 13.8384V17.2978M93.4058 13.8384H89.9463M93.4058 13.8384V17.2978H89.9463M89.9463 13.8384V17.2978M100.325 13.8384H96.8653M100.325 13.8384V17.2978M96.8653 13.8384V17.2978M121.081 13.8384H117.622M121.081 13.8384V17.2978M117.622 13.8384V17.2978M10.3788 17.2978H6.91931M10.3788 17.2978V20.7573M6.91931 17.2978V20.7573M17.2977 13.8384H13.8382V17.2978M17.2977 13.8384V17.2978M17.2977 13.8384H20.7571M17.2977 17.2978H13.8382M17.2977 17.2978H20.7571M17.2977 17.2978V20.7573M13.8382 17.2978V20.7573M20.7571 13.8384V17.2978M20.7571 13.8384H24.2166V17.2978M20.7571 17.2978H24.2166M20.7571 17.2978V20.7573M24.2166 17.2978V20.7573M31.1355 17.2978H27.6761M31.1355 17.2978V20.7573M27.6761 17.2978V20.7573M38.0544 17.2978H41.5139M41.5139 13.8384V17.2978M41.5139 13.8384H44.9734M41.5139 17.2978H44.9734M41.5139 17.2978V20.7573H44.9734M44.9734 13.8384V17.2978M44.9734 17.2978H48.4328M44.9734 17.2978V20.7573M48.4328 17.2978H51.8923M48.4328 17.2978V20.7573M51.8923 17.2978V20.7573M51.8923 17.2978H55.3517M58.8112 17.2978H55.3517M58.8112 17.2978H62.2707M58.8112 17.2978V20.7573M55.3517 17.2978V20.7573M62.2707 17.2978V20.7573M62.2707 17.2978H65.7301M69.1896 17.2978H65.7301M69.1896 17.2978V20.7573M79.568 17.2978H83.0274M83.0274 17.2978H86.4869M83.0274 17.2978V20.7573H86.4869M89.9463 17.2978H86.4869M89.9463 17.2978V20.7573M86.4869 17.2978V20.7573M100.325 17.2978H96.8653M100.325 17.2978V20.7573M96.8653 17.2978V20.7573M107.244 13.8384H103.784V17.2978M107.244 13.8384V17.2978M107.244 13.8384H110.703M107.244 17.2978H103.784M107.244 17.2978H110.703M107.244 17.2978V20.7573M103.784 17.2978V20.7573M110.703 13.8384V17.2978M110.703 13.8384H114.163V17.2978M110.703 17.2978H114.163M110.703 17.2978V20.7573M114.163 17.2978V20.7573M121.081 17.2978H117.622M121.081 17.2978V20.7573M117.622 17.2978V20.7573M10.3788 20.7573H6.91931M10.3788 20.7573V24.2167M6.91931 20.7573V24.2167M17.2977 20.7573H13.8382M17.2977 20.7573H20.7571M17.2977 20.7573V24.2167M13.8382 20.7573V24.2167H17.2977M20.7571 20.7573H24.2166M20.7571 20.7573V24.2167M24.2166 20.7573V24.2167H20.7571M31.1355 20.7573H27.6761M31.1355 20.7573V24.2167M27.6761 20.7573V24.2167M44.9734 20.7573H48.4328M44.9734 20.7573V24.2167M51.8923 20.7573H48.4328M51.8923 20.7573H55.3517M51.8923 20.7573V24.2167M48.4328 20.7573V24.2167M55.3517 20.7573V24.2167M55.3517 20.7573H58.8112M62.2707 20.7573H58.8112M62.2707 20.7573H65.7301M58.8112 20.7573V24.2167M65.7301 17.2978V20.7573M65.7301 20.7573H69.1896M69.1896 20.7573H72.649M69.1896 20.7573V24.2167M86.4869 20.7573H89.9463M89.9463 20.7573H93.4058V24.2167H89.9463V20.7573ZM100.325 20.7573H96.8653M100.325 20.7573V24.2167M96.8653 20.7573V24.2167M107.244 20.7573H103.784M107.244 20.7573H110.703M107.244 20.7573V24.2167M103.784 20.7573V24.2167H107.244M110.703 20.7573H114.163M110.703 20.7573V24.2167M114.163 20.7573V24.2167H110.703M121.081 20.7573H117.622M121.081 20.7573V24.2167M117.622 20.7573V24.2167M10.3788 24.2167H6.91931M10.3788 24.2167V27.6762M6.91931 24.2167V27.6762M17.2977 24.2167H20.7571M31.1355 24.2167H27.6761M31.1355 24.2167V27.6762M27.6761 24.2167V27.6762M48.4328 24.2167H44.9734M48.4328 24.2167H51.8923M48.4328 24.2167V27.6762M44.9734 24.2167H41.5139V27.6762M44.9734 24.2167V27.6762M55.3517 24.2167H51.8923M55.3517 24.2167H58.8112M55.3517 24.2167V27.6762M51.8923 24.2167V27.6762M58.8112 24.2167V27.6762M72.649 20.7573V24.2167M72.649 20.7573H76.1085V24.2167M72.649 24.2167H69.1896M72.649 24.2167H76.1085M72.649 24.2167V27.6762M69.1896 24.2167H65.7301M69.1896 24.2167V27.6762M76.1085 24.2167V27.6762M100.325 24.2167H96.8653M100.325 24.2167V27.6762M96.8653 24.2167V27.6762M107.244 24.2167H110.703M121.081 24.2167H117.622M121.081 24.2167V27.6762M117.622 24.2167V27.6762M10.3788 27.6762H6.91931M10.3788 27.6762V31.1357M10.3788 27.6762H13.8382M6.91931 27.6762V31.1357H10.3788M31.1355 27.6762H27.6761M31.1355 27.6762V31.1357H27.6761M27.6761 27.6762H24.2166M27.6761 27.6762V31.1357M38.0544 27.6762V24.2167H34.595V27.6762M38.0544 27.6762H34.595M38.0544 27.6762V31.1357M34.595 27.6762V31.1357M44.9734 27.6762H41.5139M44.9734 27.6762V31.1357M41.5139 27.6762V31.1357M51.8923 27.6762H48.4328M51.8923 27.6762H55.3517M51.8923 27.6762V31.1357H48.4328V27.6762M55.3517 27.6762H58.8112M55.3517 27.6762V31.1357M58.8112 27.6762V31.1357M65.7301 24.2167H62.2707V27.6762M65.7301 24.2167V27.6762M65.7301 27.6762H62.2707M65.7301 27.6762H69.1896M65.7301 27.6762V31.1357M62.2707 27.6762V31.1357M69.1896 27.6762H72.649M69.1896 27.6762V31.1357M76.1085 27.6762H72.649M76.1085 27.6762H79.568V31.1357M76.1085 27.6762V31.1357M72.649 27.6762V31.1357M86.4869 27.6762V24.2167H83.0274V27.6762M86.4869 27.6762H83.0274M86.4869 27.6762V31.1357M83.0274 27.6762V31.1357M100.325 27.6762H96.8653M100.325 27.6762V31.1357M100.325 27.6762H103.784M96.8653 27.6762V31.1357H100.325M121.081 27.6762H117.622M121.081 27.6762V31.1357H117.622M117.622 27.6762H114.163M117.622 27.6762V31.1357M10.3788 31.1357H13.8382M13.8382 27.6762V31.1357M13.8382 27.6762H17.2977M13.8382 31.1357H17.2977M17.2977 27.6762V31.1357M17.2977 27.6762H20.7571M17.2977 31.1357H20.7571M20.7571 27.6762V31.1357M20.7571 27.6762H24.2166M20.7571 31.1357H24.2166M24.2166 27.6762V31.1357M24.2166 31.1357H27.6761M38.0544 31.1357H34.595M38.0544 31.1357V34.5951M34.595 31.1357V34.5951M44.9734 31.1357H41.5139M44.9734 31.1357V34.5951M41.5139 31.1357V34.5951M58.8112 31.1357H55.3517M58.8112 31.1357V34.5951M58.8112 31.1357H62.2707M55.3517 31.1357V34.5951M65.7301 31.1357H62.2707M65.7301 31.1357H69.1896M65.7301 31.1357V34.5951M62.2707 31.1357V34.5951M72.649 31.1357H69.1896M72.649 31.1357H76.1085M72.649 31.1357V34.5951M69.1896 31.1357V34.5951H65.7301M79.568 31.1357H76.1085M79.568 31.1357H83.0274M79.568 31.1357V34.5951H83.0274M76.1085 31.1357V34.5951M86.4869 31.1357H83.0274M86.4869 31.1357V34.5951M83.0274 31.1357V34.5951M93.4058 31.1357V27.6762H89.9463V31.1357M93.4058 31.1357H89.9463M93.4058 31.1357V34.5951M89.9463 31.1357V34.5951M100.325 31.1357H103.784M103.784 27.6762V31.1357M103.784 27.6762H107.244M103.784 31.1357H107.244M107.244 27.6762V31.1357M107.244 27.6762H110.703M107.244 31.1357H110.703M110.703 27.6762V31.1357M110.703 27.6762H114.163M110.703 31.1357H114.163M114.163 27.6762V31.1357M114.163 31.1357H117.622M38.0544 34.5951H34.595M38.0544 34.5951V38.0546M38.0544 34.5951H41.5139M34.595 34.5951V38.0546H38.0544M44.9734 34.5951H41.5139M44.9734 34.5951H48.4328V38.0546M44.9734 34.5951V38.0546M41.5139 34.5951V38.0546M58.8112 34.5951H55.3517M58.8112 34.5951H62.2707M58.8112 34.5951V38.0546M55.3517 34.5951V38.0546M62.2707 34.5951H65.7301M62.2707 34.5951V38.0546M65.7301 34.5951V38.0546M76.1085 34.5951H72.649M76.1085 34.5951V38.0546H72.649M72.649 34.5951V38.0546M83.0274 34.5951H86.4869M83.0274 34.5951V38.0546H86.4869M86.4869 34.5951V38.0546M93.4058 34.5951H89.9463M93.4058 34.5951V38.0546M93.4058 34.5951H96.8653M89.9463 34.5951V38.0546M17.2977 34.5951H13.8382V38.0546M17.2977 34.5951V38.0546M17.2977 34.5951H20.7571M17.2977 38.0546H13.8382M17.2977 38.0546H20.7571M17.2977 38.0546V41.514M13.8382 38.0546V41.514H17.2977M20.7571 34.5951V38.0546M20.7571 34.5951H24.2166V38.0546M20.7571 38.0546H24.2166M20.7571 38.0546V41.514M24.2166 38.0546H27.6761M24.2166 38.0546V41.514M27.6761 38.0546H31.1355V34.5951H27.6761V38.0546ZM27.6761 38.0546V41.514M38.0544 38.0546H41.5139M38.0544 38.0546V41.514M41.5139 38.0546V41.514M48.4328 38.0546H44.9734M48.4328 38.0546V41.514M44.9734 38.0546V41.514M58.8112 38.0546H55.3517M58.8112 38.0546V41.514M58.8112 38.0546H62.2707M55.3517 38.0546H51.8923V41.514M55.3517 38.0546V41.514M65.7301 38.0546H62.2707M65.7301 38.0546V41.514M62.2707 38.0546V41.514M72.649 38.0546H69.1896V41.514H72.649V38.0546ZM86.4869 38.0546H89.9463M86.4869 38.0546V41.514M93.4058 38.0546H89.9463M93.4058 38.0546H96.8653M93.4058 38.0546V41.514M89.9463 38.0546V41.514H86.4869M96.8653 34.5951V38.0546M96.8653 34.5951H100.325M96.8653 38.0546H100.325M96.8653 38.0546V41.514M100.325 34.5951V38.0546M100.325 34.5951H103.784V38.0546H100.325M100.325 38.0546V41.514M114.163 34.5951H110.703V38.0546M114.163 34.5951V38.0546M114.163 34.5951H117.622M114.163 38.0546H110.703M114.163 38.0546H117.622M114.163 38.0546V41.514M110.703 38.0546H107.244V41.514M110.703 38.0546V41.514M117.622 34.5951V38.0546M117.622 34.5951H121.081V38.0546M117.622 38.0546H121.081M117.622 38.0546V41.514M121.081 38.0546V41.514H117.622M17.2977 41.514H20.7571M17.2977 41.514V44.9735M20.7571 41.514V44.9735M20.7571 41.514H24.2166M27.6761 41.514H24.2166M27.6761 41.514H31.1355M27.6761 41.514V44.9735M24.2166 41.514V44.9735M41.5139 41.514H38.0544M41.5139 41.514V44.9735M41.5139 41.514H44.9734M38.0544 41.514H34.595M38.0544 41.514V44.9735M48.4328 41.514H44.9734M48.4328 41.514V44.9735M44.9734 41.514V44.9735M55.3517 41.514H51.8923M55.3517 41.514H58.8112M55.3517 41.514V44.9735M51.8923 41.514V44.9735M58.8112 41.514H62.2707M58.8112 41.514V44.9735H55.3517M62.2707 41.514H65.7301M62.2707 41.514V44.9735H65.7301M65.7301 41.514V44.9735M86.4869 41.514H83.0274V44.9735H86.4869M86.4869 41.514V44.9735M96.8653 41.514H93.4058M96.8653 41.514H100.325M96.8653 41.514V44.9735M93.4058 41.514V44.9735M100.325 41.514V44.9735M100.325 41.514H103.784V44.9735H100.325M110.703 41.514H107.244M110.703 41.514V44.9735M110.703 41.514H114.163M107.244 41.514V44.9735M117.622 41.514H114.163M117.622 41.514V44.9735M114.163 41.514V44.9735M20.7571 44.9735H17.2977M20.7571 44.9735H24.2166M20.7571 44.9735V48.4329M17.2977 44.9735V48.4329H20.7571M24.2166 44.9735H27.6761M24.2166 44.9735V48.4329M31.1355 41.514V44.9735M31.1355 41.514H34.595M31.1355 44.9735H27.6761M31.1355 44.9735H34.595M31.1355 44.9735V48.4329M27.6761 44.9735V48.4329M34.595 41.514V44.9735M34.595 44.9735H38.0544M34.595 44.9735V48.4329M38.0544 44.9735H41.5139M41.5139 44.9735H44.9734M41.5139 44.9735V48.4329M44.9734 44.9735H48.4328M44.9734 44.9735V48.4329M48.4328 44.9735V48.4329M48.4328 44.9735H51.8923M55.3517 44.9735H51.8923M55.3517 44.9735V48.4329H51.8923M51.8923 44.9735V48.4329M65.7301 44.9735H69.1896M65.7301 44.9735V48.4329H69.1896M79.568 44.9735V41.514H76.1085V44.9735M79.568 44.9735H76.1085M79.568 44.9735V48.4329M76.1085 44.9735V48.4329H79.568M86.4869 44.9735H89.9463M86.4869 44.9735V48.4329M96.8653 44.9735H93.4058M96.8653 44.9735H100.325M96.8653 44.9735V48.4329M93.4058 44.9735H89.9463M93.4058 44.9735V48.4329M100.325 44.9735V48.4329M110.703 44.9735H107.244M110.703 44.9735H114.163M110.703 44.9735V48.4329M107.244 44.9735V48.4329H110.703M114.163 44.9735H117.622M114.163 44.9735V48.4329M117.622 44.9735V48.4329M117.622 44.9735H121.081V48.4329H117.622M13.8382 48.4329V44.9735H10.3788V48.4329M13.8382 48.4329H10.3788M13.8382 48.4329V51.8924M10.3788 48.4329H6.91931V51.8924M10.3788 48.4329V51.8924M20.7571 48.4329H24.2166M20.7571 48.4329V51.8924M27.6761 48.4329H24.2166M27.6761 48.4329H31.1355M27.6761 48.4329V51.8924H31.1355M24.2166 48.4329V51.8924M34.595 48.4329H31.1355M34.595 48.4329V51.8924M31.1355 48.4329V51.8924M44.9734 48.4329H41.5139M44.9734 48.4329H48.4328M44.9734 48.4329V51.8924M41.5139 48.4329H38.0544V51.8924M41.5139 48.4329V51.8924M48.4328 48.4329H51.8923M69.1896 44.9735V48.4329M69.1896 44.9735H72.649V48.4329H69.1896M79.568 48.4329H83.0274M79.568 48.4329V51.8924H83.0274M89.9463 44.9735V48.4329M89.9463 48.4329H86.4869M89.9463 48.4329H93.4058M86.4869 48.4329H83.0274M86.4869 48.4329V51.8924M93.4058 48.4329H96.8653M93.4058 48.4329V51.8924H96.8653M100.325 48.4329H96.8653M100.325 48.4329H103.784V51.8924M100.325 48.4329V51.8924M96.8653 48.4329V51.8924M110.703 48.4329H114.163M114.163 48.4329H117.622M114.163 48.4329V51.8924H117.622M117.622 48.4329V51.8924M10.3788 51.8924H6.91931M10.3788 51.8924H13.8382M10.3788 51.8924V55.3519M6.91931 51.8924V55.3519H10.3788M13.8382 51.8924V55.3519M13.8382 51.8924H17.2977V55.3519M24.2166 51.8924H20.7571M24.2166 51.8924V55.3519H20.7571M20.7571 51.8924V55.3519M31.1355 51.8924H34.595M31.1355 51.8924V55.3519M34.595 51.8924V55.3519M34.595 51.8924H38.0544M41.5139 51.8924H38.0544M41.5139 51.8924H44.9734M41.5139 51.8924V55.3519M38.0544 51.8924V55.3519M44.9734 51.8924V55.3519M83.0274 48.4329V51.8924M83.0274 51.8924H86.4869M86.4869 51.8924H89.9463V55.3519H86.4869M86.4869 51.8924V55.3519M96.8653 51.8924H100.325M96.8653 51.8924V55.3519H100.325M103.784 51.8924H100.325M103.784 51.8924H107.244M103.784 51.8924V55.3519M100.325 51.8924V55.3519M117.622 51.8924H121.081V55.3519H117.622M117.622 51.8924V55.3519M10.3788 55.3519H13.8382M13.8382 55.3519H17.2977M17.2977 55.3519H20.7571M17.2977 55.3519V58.8113M20.7571 55.3519V58.8113H17.2977M34.595 55.3519H31.1355M34.595 55.3519H38.0544M34.595 55.3519V58.8113M31.1355 55.3519H27.6761V58.8113H31.1355M31.1355 55.3519V58.8113M38.0544 55.3519H41.5139M38.0544 55.3519V58.8113M41.5139 55.3519H44.9734M41.5139 55.3519V58.8113M44.9734 55.3519H48.4328V58.8113H44.9734M44.9734 55.3519V58.8113M86.4869 55.3519H83.0274V58.8113M86.4869 55.3519V58.8113M100.325 55.3519H103.784M100.325 55.3519V58.8113H103.784M107.244 51.8924V55.3519M107.244 51.8924H110.703V55.3519H107.244M107.244 55.3519H103.784M107.244 55.3519V58.8113M103.784 55.3519V58.8113M117.622 55.3519H114.163V58.8113H117.622M117.622 55.3519V58.8113M17.2977 58.8113H13.8382V62.2708M17.2977 58.8113V62.2708M31.1355 58.8113H34.595M31.1355 58.8113V62.2708M34.595 58.8113V62.2708M34.595 58.8113H38.0544M41.5139 58.8113H38.0544M41.5139 58.8113V62.2708M41.5139 58.8113H44.9734M38.0544 58.8113V62.2708M44.9734 58.8113V62.2708M86.4869 58.8113H83.0274M86.4869 58.8113V62.2708H83.0274M83.0274 58.8113H79.568V62.2708H83.0274M83.0274 58.8113V62.2708M103.784 58.8113H107.244M103.784 58.8113V62.2708M107.244 58.8113V62.2708M107.244 58.8113H110.703V62.2708M117.622 58.8113H121.081V62.2708M117.622 58.8113V62.2708M10.3788 62.2708V58.8113H6.91931V62.2708M10.3788 62.2708H6.91931M10.3788 62.2708V65.7302M10.3788 62.2708H13.8382M6.91931 62.2708V65.7302H10.3788M17.2977 62.2708H13.8382M17.2977 62.2708V65.7302M17.2977 62.2708H20.7571V65.7302M13.8382 62.2708V65.7302M34.595 62.2708H31.1355M34.595 62.2708H38.0544M34.595 62.2708V65.7302M31.1355 62.2708H27.6761V65.7302H31.1355M31.1355 62.2708V65.7302M38.0544 62.2708H41.5139M38.0544 62.2708V65.7302M41.5139 62.2708H44.9734M41.5139 62.2708V65.7302M44.9734 62.2708H48.4328V65.7302H44.9734M44.9734 62.2708V65.7302M107.244 62.2708H103.784M107.244 62.2708H110.703M107.244 62.2708V65.7302H103.784M103.784 62.2708H100.325V65.7302M103.784 62.2708V65.7302M110.703 62.2708H114.163V65.7302H110.703V62.2708ZM121.081 62.2708H117.622M121.081 62.2708V65.7302H117.622V62.2708M10.3788 65.7302H13.8382M10.3788 65.7302V69.1897M13.8382 65.7302H17.2977M13.8382 65.7302V69.1897M17.2977 65.7302H20.7571M17.2977 65.7302V69.1897M20.7571 65.7302H24.2166V69.1897M20.7571 65.7302V69.1897M31.1355 65.7302H34.595M34.595 65.7302H38.0544M34.595 65.7302V69.1897M41.5139 65.7302H38.0544M41.5139 65.7302V69.1897M41.5139 65.7302H44.9734M38.0544 65.7302V69.1897M44.9734 65.7302V69.1897M103.784 65.7302H100.325M100.325 65.7302H96.8653V69.1897H100.325M100.325 65.7302V69.1897M13.8382 69.1897H10.3788M13.8382 69.1897H17.2977M13.8382 69.1897V72.6492M10.3788 69.1897V72.6492M17.2977 69.1897V72.6492M17.2977 69.1897H20.7571M24.2166 69.1897H20.7571M24.2166 69.1897H27.6761M24.2166 69.1897V72.6492M20.7571 69.1897V72.6492M38.0544 69.1897H34.595M38.0544 69.1897H41.5139M38.0544 69.1897V72.6492M34.595 69.1897V72.6492M41.5139 69.1897H44.9734M44.9734 69.1897H48.4328V72.6492H44.9734V69.1897ZM89.9463 65.7302H86.4869V69.1897M89.9463 65.7302V69.1897M89.9463 65.7302H93.4058V69.1897H89.9463M89.9463 69.1897H86.4869M86.4869 69.1897H83.0274V72.6492M86.4869 69.1897V72.6492M100.325 69.1897H103.784M100.325 69.1897V72.6492M13.8382 72.6492H10.3788M13.8382 72.6492H17.2977M10.3788 72.6492H6.91931V76.1086H10.3788V72.6492ZM17.2977 72.6492H20.7571M17.2977 72.6492V76.1086M20.7571 72.6492V76.1086M27.6761 69.1897V72.6492M27.6761 69.1897H31.1355V72.6492H27.6761M27.6761 72.6492H24.2166M27.6761 72.6492V76.1086M24.2166 72.6492V76.1086M38.0544 72.6492H34.595M38.0544 72.6492V76.1086M34.595 72.6492V76.1086M86.4869 72.6492H83.0274M86.4869 72.6492H89.9463M86.4869 72.6492V76.1086M83.0274 72.6492H79.568V76.1086H83.0274M83.0274 72.6492V76.1086M103.784 69.1897V72.6492M103.784 69.1897H107.244V72.6492M103.784 72.6492H100.325M103.784 72.6492H107.244M103.784 72.6492V76.1086M100.325 72.6492V76.1086M107.244 72.6492H110.703M107.244 72.6492V76.1086M114.163 72.6492V69.1897H110.703V72.6492M114.163 72.6492H110.703M114.163 72.6492V76.1086M114.163 72.6492H117.622M110.703 72.6492V76.1086M20.7571 76.1086H17.2977M20.7571 76.1086H24.2166M20.7571 76.1086V79.5681M17.2977 76.1086H13.8382V79.5681M17.2977 76.1086V79.5681M27.6761 76.1086H24.2166M27.6761 76.1086H31.1355V79.5681M27.6761 76.1086V79.5681H31.1355M24.2166 76.1086V79.5681H20.7571M38.0544 76.1086H34.595M38.0544 76.1086V79.5681M38.0544 76.1086H41.5139V79.5681M34.595 76.1086V79.5681M83.0274 76.1086H86.4869M83.0274 76.1086V79.5681M89.9463 72.6492V76.1086M89.9463 72.6492H93.4058M89.9463 76.1086H86.4869M89.9463 76.1086H93.4058M89.9463 76.1086V79.5681H93.4058M86.4869 76.1086V79.5681M93.4058 72.6492V76.1086M93.4058 72.6492H96.8653V76.1086H93.4058M93.4058 76.1086V79.5681M103.784 76.1086H100.325M103.784 76.1086V79.5681M103.784 76.1086H107.244M100.325 76.1086V79.5681M110.703 76.1086H107.244M110.703 76.1086H114.163M110.703 76.1086V79.5681M107.244 76.1086V79.5681M114.163 76.1086H117.622M114.163 76.1086V79.5681M117.622 72.6492V76.1086M117.622 72.6492H121.081V76.1086M117.622 76.1086H121.081M117.622 76.1086V79.5681M121.081 76.1086V79.5681M17.2977 79.5681H13.8382M17.2977 79.5681V83.0275M17.2977 79.5681H20.7571M13.8382 79.5681V83.0275M20.7571 79.5681V83.0275M31.1355 79.5681H34.595M31.1355 79.5681V83.0275M38.0544 79.5681H34.595M38.0544 79.5681H41.5139M38.0544 79.5681V83.0275H34.595M34.595 79.5681V83.0275M41.5139 79.5681H44.9734M41.5139 79.5681V83.0275M44.9734 79.5681H48.4328V76.1086H44.9734V79.5681ZM44.9734 79.5681V83.0275M86.4869 79.5681H83.0274M86.4869 79.5681V83.0275M83.0274 79.5681V83.0275M93.4058 79.5681H96.8653V83.0275H93.4058M93.4058 79.5681V83.0275M103.784 79.5681H100.325M103.784 79.5681H107.244M103.784 79.5681V83.0275M100.325 79.5681V83.0275H103.784M107.244 79.5681H110.703M107.244 79.5681V83.0275M110.703 79.5681V83.0275M110.703 79.5681H114.163M117.622 79.5681H114.163M117.622 79.5681H121.081M117.622 79.5681V83.0275M114.163 79.5681V83.0275M121.081 79.5681V83.0275H117.622M10.3788 83.0275V79.5681H6.91931V83.0275M10.3788 83.0275H6.91931M10.3788 83.0275V86.487M6.91931 83.0275V86.487M17.2977 83.0275H13.8382M17.2977 83.0275H20.7571M17.2977 83.0275V86.487M13.8382 83.0275V86.487H17.2977M20.7571 83.0275V86.487M20.7571 83.0275H24.2166V86.487M34.595 83.0275H31.1355M31.1355 83.0275H27.6761V86.487H31.1355V83.0275ZM44.9734 83.0275H41.5139M44.9734 83.0275V86.487M41.5139 83.0275V86.487M55.3517 83.0275V79.5681H51.8923V83.0275M55.3517 83.0275H51.8923M55.3517 83.0275V86.487M51.8923 83.0275V86.487M62.2707 83.0275V79.5681H58.8112V83.0275M62.2707 83.0275H58.8112M62.2707 83.0275V86.487M62.2707 83.0275H65.7301M58.8112 83.0275V86.487M69.1896 79.5681H65.7301V83.0275M69.1896 79.5681V83.0275M69.1896 79.5681H72.649M69.1896 83.0275H65.7301M69.1896 83.0275H72.649M69.1896 83.0275V86.487H65.7301M65.7301 83.0275V86.487M72.649 79.5681V83.0275M72.649 79.5681H76.1085M72.649 83.0275H76.1085M72.649 83.0275V86.487M76.1085 79.5681V83.0275M76.1085 79.5681H79.568V83.0275M76.1085 83.0275H79.568M76.1085 83.0275V86.487M79.568 83.0275V86.487M79.568 83.0275H83.0274M86.4869 83.0275H83.0274M86.4869 83.0275V86.487M86.4869 83.0275H89.9463M83.0274 83.0275V86.487M93.4058 83.0275H89.9463M93.4058 83.0275V86.487H89.9463M103.784 83.0275H107.244M103.784 83.0275V86.487H107.244M110.703 83.0275H107.244M110.703 83.0275H114.163M110.703 83.0275V86.487M107.244 83.0275V86.487M114.163 83.0275H117.622M114.163 83.0275V86.487M117.622 83.0275V86.487M10.3788 86.487H6.91931M10.3788 86.487V89.9465M6.91931 86.487V89.9465M17.2977 86.487H20.7571M17.2977 86.487V89.9465H20.7571M20.7571 86.487H24.2166M20.7571 86.487V89.9465M24.2166 86.487V89.9465M44.9734 86.487H41.5139M44.9734 86.487V89.9465M41.5139 86.487V89.9465H44.9734M55.3517 86.487H51.8923M55.3517 86.487V89.9465M55.3517 86.487H58.8112M51.8923 86.487V89.9465M62.2707 86.487H58.8112M62.2707 86.487H65.7301M62.2707 86.487V89.9465M58.8112 86.487V89.9465M65.7301 86.487V89.9465M76.1085 86.487H72.649M76.1085 86.487H79.568M76.1085 86.487V89.9465M72.649 86.487V89.9465M79.568 86.487H83.0274M79.568 86.487V89.9465H83.0274M83.0274 86.487H86.4869M83.0274 86.487V89.9465M86.4869 86.487H89.9463M86.4869 86.487V89.9465M89.9463 83.0275V86.487M89.9463 86.487V89.9465M107.244 86.487H110.703M107.244 86.487V89.9465M110.703 86.487V89.9465M110.703 86.487H114.163M117.622 86.487H114.163M117.622 86.487V89.9465M114.163 86.487V89.9465M10.3788 89.9465H6.91931M10.3788 89.9465V93.4059H6.91931V89.9465M20.7571 89.9465H24.2166M20.7571 89.9465V93.4059H24.2166M24.2166 89.9465V93.4059M24.2166 89.9465H27.6761M44.9734 89.9465H48.4328V93.4059M44.9734 89.9465V93.4059M55.3517 89.9465H51.8923M55.3517 89.9465H58.8112M55.3517 89.9465V93.4059M51.8923 89.9465V93.4059H55.3517M58.8112 89.9465H62.2707M58.8112 89.9465V93.4059M62.2707 89.9465H65.7301M62.2707 89.9465V93.4059M65.7301 89.9465V93.4059M65.7301 89.9465H69.1896V93.4059M76.1085 89.9465H72.649M76.1085 89.9465V93.4059M72.649 89.9465V93.4059M83.0274 89.9465H86.4869M86.4869 89.9465H89.9463M86.4869 89.9465V93.4059H89.9463M89.9463 89.9465V93.4059M89.9463 89.9465H93.4058M110.703 89.9465H107.244M110.703 89.9465H114.163M110.703 89.9465V93.4059M107.244 89.9465H103.784M107.244 89.9465V93.4059M114.163 89.9465H117.622M114.163 89.9465V93.4059M117.622 89.9465V93.4059M24.2166 93.4059H27.6761M27.6761 89.9465V93.4059M27.6761 89.9465H31.1355V93.4059H27.6761M38.0544 93.4059V89.9465H34.595V93.4059M38.0544 93.4059H34.595M38.0544 93.4059V96.8654M38.0544 93.4059H41.5139M34.595 93.4059V96.8654H38.0544M48.4328 93.4059H44.9734M48.4328 93.4059V96.8654M44.9734 93.4059H41.5139M44.9734 93.4059V96.8654M55.3517 93.4059H58.8112M58.8112 93.4059H62.2707M62.2707 93.4059H65.7301M65.7301 93.4059H69.1896M65.7301 93.4059V96.8654M69.1896 93.4059V96.8654M69.1896 93.4059H72.649M76.1085 93.4059H72.649M76.1085 93.4059H79.568M76.1085 93.4059V96.8654H79.568M72.649 93.4059V96.8654M89.9463 93.4059H93.4058M89.9463 93.4059V96.8654M93.4058 89.9465V93.4059M93.4058 89.9465H96.8653M93.4058 93.4059H96.8653M93.4058 93.4059V96.8654M96.8653 89.9465V93.4059M96.8653 89.9465H100.325M96.8653 93.4059H100.325M100.325 89.9465V93.4059M100.325 89.9465H103.784M100.325 93.4059H103.784M103.784 89.9465V93.4059M103.784 93.4059H107.244M103.784 93.4059V96.8654M107.244 93.4059H110.703M107.244 93.4059V96.8654M110.703 93.4059V96.8654M117.622 93.4059H114.163M117.622 93.4059V96.8654M117.622 93.4059H121.081V96.8654H117.622M114.163 93.4059V96.8654M38.0544 96.8654H41.5139M41.5139 93.4059V96.8654M41.5139 96.8654H44.9734M44.9734 96.8654H48.4328M44.9734 96.8654V100.325M48.4328 96.8654V100.325M69.1896 96.8654H65.7301M69.1896 96.8654H72.649M69.1896 96.8654V100.325M65.7301 96.8654V100.325M72.649 96.8654V100.325M79.568 93.4059V96.8654M79.568 93.4059H83.0274V96.8654M79.568 96.8654H83.0274M79.568 96.8654V100.325M83.0274 96.8654V100.325M93.4058 96.8654H89.9463M93.4058 96.8654V100.325M89.9463 96.8654H86.4869V100.325M89.9463 96.8654V100.325M107.244 96.8654H103.784M107.244 96.8654H110.703M107.244 96.8654V100.325M103.784 96.8654V100.325M110.703 96.8654V100.325M117.622 96.8654H114.163M117.622 96.8654V100.325M114.163 96.8654V100.325M10.3788 96.8654H6.91931V100.325M10.3788 96.8654V100.325M10.3788 96.8654H13.8382M10.3788 100.325H6.91931M10.3788 100.325H13.8382M10.3788 100.325V103.784M6.91931 100.325V103.784M13.8382 96.8654V100.325M13.8382 96.8654H17.2977M13.8382 100.325H17.2977M17.2977 96.8654V100.325M17.2977 96.8654H20.7571M17.2977 100.325H20.7571M20.7571 96.8654V100.325M20.7571 96.8654H24.2166M20.7571 100.325H24.2166M24.2166 96.8654V100.325M24.2166 96.8654H27.6761M24.2166 100.325H27.6761M27.6761 96.8654V100.325M27.6761 96.8654H31.1355V100.325M27.6761 100.325H31.1355M27.6761 100.325V103.784M31.1355 100.325V103.784M48.4328 100.325H44.9734M48.4328 100.325V103.784M48.4328 100.325H51.8923M44.9734 100.325H41.5139V103.784M44.9734 100.325V103.784M55.3517 96.8654H51.8923V100.325M55.3517 96.8654V100.325M55.3517 96.8654H58.8112M55.3517 100.325H51.8923M55.3517 100.325H58.8112M55.3517 100.325V103.784M51.8923 100.325V103.784M58.8112 96.8654V100.325M58.8112 96.8654H62.2707V100.325H58.8112M69.1896 100.325H65.7301M69.1896 100.325H72.649M69.1896 100.325V103.784M65.7301 100.325V103.784M72.649 100.325V103.784M83.0274 100.325H79.568M83.0274 100.325V103.784M83.0274 100.325H86.4869M79.568 100.325H76.1085V103.784H79.568M79.568 100.325V103.784M89.9463 100.325H86.4869M89.9463 100.325H93.4058M89.9463 100.325V103.784M86.4869 100.325V103.784M93.4058 100.325V103.784M107.244 100.325H103.784M107.244 100.325H110.703M107.244 100.325V103.784M103.784 100.325V103.784M110.703 100.325V103.784M110.703 100.325H114.163M117.622 100.325H114.163M117.622 100.325V103.784M117.622 100.325H121.081V103.784M114.163 100.325V103.784M10.3788 103.784H6.91931M10.3788 103.784V107.244M6.91931 103.784V107.244M31.1355 103.784H27.6761M31.1355 103.784V107.244M27.6761 103.784V107.244M44.9734 103.784H41.5139M44.9734 103.784H48.4328M44.9734 103.784V107.244M41.5139 103.784H38.0544M41.5139 103.784V107.244M48.4328 103.784H51.8923M48.4328 103.784V107.244M51.8923 103.784H55.3517M51.8923 103.784V107.244M55.3517 103.784V107.244M55.3517 103.784H58.8112M69.1896 103.784H65.7301M69.1896 103.784H72.649M69.1896 103.784V107.244M65.7301 103.784V107.244M72.649 103.784V107.244M79.568 103.784H83.0274M79.568 103.784V107.244H83.0274M83.0274 103.784H86.4869M83.0274 103.784V107.244M86.4869 103.784H89.9463M89.9463 103.784H93.4058M89.9463 103.784V107.244H93.4058M93.4058 103.784V107.244M93.4058 103.784H96.8653M107.244 103.784H103.784M107.244 103.784H110.703M107.244 103.784V107.244M103.784 103.784H100.325M103.784 103.784V107.244M110.703 103.784H114.163M110.703 103.784V107.244M114.163 103.784H117.622M114.163 103.784V107.244M117.622 103.784H121.081M117.622 103.784V107.244M121.081 103.784V107.244H117.622M10.3788 107.244H6.91931M10.3788 107.244V110.703M6.91931 107.244V110.703M17.2977 103.784H13.8382V107.244M17.2977 103.784V107.244M17.2977 103.784H20.7571M17.2977 107.244H13.8382M17.2977 107.244H20.7571M17.2977 107.244V110.703M13.8382 107.244V110.703M20.7571 103.784V107.244M20.7571 103.784H24.2166V107.244M20.7571 107.244H24.2166M20.7571 107.244V110.703M24.2166 107.244V110.703M31.1355 107.244H27.6761M31.1355 107.244V110.703M27.6761 107.244V110.703M38.0544 103.784H34.595V107.244M38.0544 103.784V107.244M38.0544 107.244H34.595M38.0544 107.244H41.5139M38.0544 107.244V110.703M34.595 107.244V110.703M41.5139 107.244H44.9734M41.5139 107.244V110.703H38.0544M44.9734 107.244H48.4328M44.9734 107.244V110.703M51.8923 107.244H48.4328M51.8923 107.244H55.3517M51.8923 107.244V110.703M48.4328 107.244V110.703M55.3517 107.244H58.8112M58.8112 103.784V107.244M58.8112 103.784H62.2707V107.244M58.8112 107.244H62.2707M58.8112 107.244V110.703H62.2707M62.2707 107.244V110.703M62.2707 107.244H65.7301M69.1896 107.244H65.7301M69.1896 107.244H72.649M69.1896 107.244V110.703M65.7301 107.244V110.703M72.649 107.244V110.703M83.0274 107.244H86.4869V110.703M83.0274 107.244V110.703M93.4058 107.244H96.8653M93.4058 107.244V110.703M96.8653 103.784V107.244M96.8653 103.784H100.325M96.8653 107.244H100.325M96.8653 107.244V110.703M100.325 103.784V107.244M100.325 107.244H103.784M103.784 107.244H107.244M103.784 107.244V110.703H107.244M107.244 107.244H110.703M107.244 107.244V110.703M110.703 107.244H114.163M110.703 107.244V110.703M117.622 107.244H114.163M117.622 107.244V110.703H114.163M114.163 107.244V110.703M10.3788 110.703H6.91931M10.3788 110.703V114.163M6.91931 110.703V114.163M17.2977 110.703H13.8382M17.2977 110.703H20.7571M17.2977 110.703V114.163M13.8382 110.703V114.163H17.2977M20.7571 110.703H24.2166M20.7571 110.703V114.163M24.2166 110.703V114.163H20.7571M31.1355 110.703H27.6761M31.1355 110.703V114.163M27.6761 110.703V114.163M38.0544 110.703H34.595M38.0544 110.703V114.163M34.595 110.703V114.163H38.0544M48.4328 110.703H44.9734M48.4328 110.703H51.8923M48.4328 110.703V114.163M44.9734 110.703V114.163M51.8923 110.703V114.163M62.2707 110.703H65.7301M62.2707 110.703V114.163M65.7301 110.703H69.1896M65.7301 110.703V114.163M69.1896 110.703H72.649M69.1896 110.703V114.163M72.649 110.703V114.163M72.649 110.703H76.1085V114.163M86.4869 110.703H83.0274M86.4869 110.703V114.163M86.4869 110.703H89.9463V114.163H86.4869M83.0274 110.703V114.163H86.4869M96.8653 110.703H93.4058M96.8653 110.703V114.163M96.8653 110.703H100.325V114.163M93.4058 110.703V114.163M107.244 110.703H110.703M107.244 110.703V114.163H110.703M114.163 110.703H110.703M114.163 110.703V114.163M110.703 110.703V114.163M10.3788 114.163H6.91931M10.3788 114.163V117.622M6.91931 114.163V117.622M17.2977 114.163H20.7571M31.1355 114.163H27.6761M31.1355 114.163V117.622M27.6761 114.163V117.622M38.0544 114.163H41.5139M38.0544 114.163V117.622M48.4328 114.163H44.9734M48.4328 114.163H51.8923M48.4328 114.163V117.622M44.9734 114.163H41.5139M44.9734 114.163V117.622M51.8923 114.163V117.622M51.8923 114.163H55.3517M65.7301 114.163H62.2707M65.7301 114.163H69.1896M65.7301 114.163V117.622H69.1896V114.163M62.2707 114.163H58.8112M62.2707 114.163V117.622M72.649 114.163H69.1896M72.649 114.163H76.1085M72.649 114.163V117.622H76.1085V114.163M96.8653 114.163H93.4058M96.8653 114.163H100.325M96.8653 114.163V117.622M93.4058 114.163V117.622M100.325 114.163H103.784V117.622H100.325M100.325 114.163V117.622M110.703 114.163H114.163M110.703 114.163V117.622M114.163 114.163V117.622M10.3788 117.622H6.91931M10.3788 117.622V121.082M10.3788 117.622H13.8382M6.91931 117.622V121.082H10.3788M31.1355 117.622H27.6761M31.1355 117.622V121.082H27.6761M27.6761 117.622H24.2166M27.6761 117.622V121.082M41.5139 114.163V117.622M41.5139 117.622H38.0544M41.5139 117.622H44.9734M41.5139 117.622V121.082M38.0544 117.622V121.082H41.5139M44.9734 117.622V121.082M44.9734 117.622H48.4328M51.8923 117.622H48.4328M51.8923 117.622H55.3517M51.8923 117.622V121.082M48.4328 117.622V121.082M55.3517 114.163V117.622M55.3517 114.163H58.8112M55.3517 117.622H58.8112M55.3517 117.622V121.082H51.8923M58.8112 114.163V117.622M58.8112 117.622H62.2707M58.8112 117.622V121.082H62.2707V117.622M96.8653 117.622H93.4058M96.8653 117.622V121.082M96.8653 117.622H100.325M93.4058 117.622H89.9463M93.4058 117.622V121.082M100.325 117.622V121.082H96.8653M114.163 117.622H110.703M114.163 117.622V121.082M114.163 117.622H117.622V121.082H114.163M110.703 117.622H107.244V121.082H110.703M110.703 117.622V121.082M10.3788 121.082H13.8382M13.8382 117.622V121.082M13.8382 117.622H17.2977M13.8382 121.082H17.2977M17.2977 117.622V121.082M17.2977 117.622H20.7571M17.2977 121.082H20.7571M20.7571 117.622V121.082M20.7571 117.622H24.2166M20.7571 121.082H24.2166M24.2166 117.622V121.082M24.2166 121.082H27.6761M41.5139 121.082H44.9734M44.9734 121.082H48.4328M48.4328 121.082H51.8923M83.0274 117.622H79.568V121.082H83.0274M83.0274 117.622V121.082M83.0274 117.622H86.4869M83.0274 121.082H86.4869M86.4869 117.622V121.082M86.4869 117.622H89.9463M86.4869 121.082H89.9463M89.9463 117.622V121.082M89.9463 121.082H93.4058M93.4058 121.082H96.8653M110.703 121.082H114.163M6.91931 38.0546H10.3788V41.514H6.91931V38.0546ZM93.4058 58.8113H96.8653V62.2708H93.4058V58.8113ZM96.8653 96.8654H100.325V100.325H96.8653V96.8654Z" stroke="black" stroke-width="0.256"/>
<path d="M58.1428 54.6438C58.0508 54.8523 58 55.1077 58 55.4048V72.6457C58 72.9437 58.051 73.1993 58.1432 73.4078L67.5244 64.0253L58.1428 54.6438Z" fill="black"/>
<path d="M58.6852 73.9684C59.0329 74.117 59.4864 74.0698 59.9809 73.7894L71.0171 67.5181L68.0756 64.5766L58.6852 73.9684Z" fill="black"/>
<path d="M71.7206 67.1191L75.1832 65.1518C76.2723 64.532 76.2723 63.5194 75.1832 62.9004L71.7195 60.9322L68.6268 64.0253L71.7206 67.1191Z" fill="black"/>
<path d="M71.0165 60.5327L59.9809 54.262C59.4861 53.9808 59.0324 53.934 58.6846 54.0831L68.0755 63.4741L71.0165 60.5327Z" fill="black"/>
</svg>
